<?xml version="1.0" encoding="UTF-8" standalone="no"?>
<!-- Created with Inkscape (http://www.inkscape.org/) -->

<svg
   xmlns:dc="http://purl.org/dc/elements/1.1/"
   xmlns:cc="http://creativecommons.org/ns#"
   xmlns:rdf="http://www.w3.org/1999/02/22-rdf-syntax-ns#"
   xmlns:svg="http://www.w3.org/2000/svg"
   xmlns="http://www.w3.org/2000/svg"
   xmlns:sodipodi="http://sodipodi.sourceforge.net/DTD/sodipodi-0.dtd"
   xmlns:inkscape="http://www.inkscape.org/namespaces/inkscape"
   width="210mm"
   height="297mm"
   viewBox="0 0 210 297"
   version="1.1"
   id="svg8"
   inkscape:version="0.92.3 (2405546, 2018-03-11)"
   sodipodi:docname="hammer.svg">
  <defs
     id="defs2" />
  <sodipodi:namedview
     id="base"
     pagecolor="#ffffff"
     bordercolor="#666666"
     borderopacity="1.0"
     inkscape:pageopacity="0.0"
     inkscape:pageshadow="2"
     inkscape:zoom="0.35"
     inkscape:cx="-82.857143"
     inkscape:cy="548.57143"
     inkscape:document-units="mm"
     inkscape:current-layer="layer1"
     showgrid="false"
     inkscape:window-width="1280"
     inkscape:window-height="974"
     inkscape:window-x="0"
     inkscape:window-y="24"
     inkscape:window-maximized="1" />
  <metadata
     id="metadata5">
    <rdf:RDF>
      <cc:Work
         rdf:about="">
        <dc:format>image/svg+xml</dc:format>
        <dc:type
           rdf:resource="http://purl.org/dc/dcmitype/StillImage" />
        <dc:title></dc:title>
      </cc:Work>
    </rdf:RDF>
  </metadata>
  <g
     inkscape:label="Layer 1"
     inkscape:groupmode="layer"
     id="layer1">
    <g
       id="g21"
       transform="translate(125.48809,-21.922616)">
      <path
         style="fill:#fcfbfb;stroke-width:0.35277775"
         d="M -124.22817,151.85714 V 49.551594 H -21.92262 80.38293 V 151.85714 254.16269 H -21.92262 -124.22817 Z"
         id="path37"
         inkscape:connector-curvature="0" />
      <path
         style="fill:#9fa1a0;stroke-width:0.35277775"
         d="m -34.093453,253.61628 c -17.46052,-1.47135 -37.003663,-9.63815 -52.387497,-21.89198 -3.82653,-3.04799 -12.187911,-11.42043 -15.2886,-15.30883 -9.41872,-11.8115 -15.95041,-24.89371 -19.63903,-39.33472 -2.61323,-10.23081 -3.46371,-22.62954 -2.44405,-35.63055 1.47248,-18.77471 9.49151,-38.44868 22.07187,-54.151386 3.130143,-3.907017 11.491169,-12.274388 15.29981,-15.311422 7.665371,-6.112413 18.6115,-12.4505 27.405339,-15.86839 7.36388,-2.86211 17.100779,-5.322823 23.375499,-5.907468 10.470035,-0.975541 24.505323,-0.706322 32.1219354,0.616149 16.1003116,2.795495 32.6589446,10.384204 46.2138866,21.179511 3.8391,3.057503 12.202685,11.416279 15.300416,15.29162 3.801999,4.756404 8.799611,12.466778 11.432945,17.638886 9.210695,18.09065 12.354355,35.52654 10.502684,58.25176 -1.493001,18.32332 -9.429129,37.58005 -21.935629,53.22601 -3.097731,3.87535 -11.461316,12.23412 -15.300416,15.29162 -12.763147,10.16471 -26.93327,16.94585 -42.85536115,20.5085 -8.04345635,1.79977 -22.19415185,2.3849 -33.87380185,1.40069 z m 57.486177,-34.08243 c 0.494199,-0.22518 0.889455,-0.50299 0.878346,-0.61737 -0.06211,-0.63957 -40.842556,-57.00517 -41.243174,-57.00517 -0.265098,0 -0.530507,0.15875 -0.589795,0.35278 -0.05929,0.19403 7.124943,10.7509 15.9649576,23.45972 8.8400109,12.70882 17.8111214,25.60725 19.9357994,28.66319 2.124678,3.05594 3.928808,5.55625 4.009185,5.55625 0.08037,0 0.550481,-0.18423 1.044681,-0.4094 z m -82.150323,-29.92949 c 10.261634,-11.9327 22.41039,-26.06145 26.997235,-31.39722 4.586845,-5.33576 8.284298,-9.76313 8.216561,-9.8386 -0.177179,-0.1974 -1.796831,1.63682 -36.100397,40.88305 -9.581945,10.96257 -17.731108,20.27738 -18.10925,20.69957 -0.62495,0.69776 -0.575321,1.7142 0.07108,1.45585 0.146988,-0.0588 8.663135,-9.86994 18.92477,-21.80265 z m 29.552433,-38.72367 c 0.09208,-0.149 -7.511013,-11.45994 -16.895773,-25.13542 -16.979186,-24.74209 -17.079033,-24.87797 -20.278403,-27.598822 l -3.215202,-2.73431 -2.534175,0.206216 c -2.502052,0.203603 -2.556845,0.229779 -4.3226,2.065006 -1.017641,1.057677 -2.31,2.94858 -2.998611,4.38738 -1.183185,2.47217 -1.283797,2.57256 -4.50953,4.49944 -2.494404,1.49003 -3.459476,1.89709 -3.955722,1.6685 -0.897862,-0.41361 -9.564812,-12.770313 -9.43199,-13.447448 0.05858,-0.298623 1.314619,-1.480499 2.791209,-2.626395 2.338808,-1.815014 2.963042,-2.122788 4.844981,-2.3888 1.188151,-0.167943 2.885845,-0.66772 3.772657,-1.110618 2.097042,-1.047313 4.52441,-3.667054 5.579103,-6.021264 0.461197,-1.029451 1.217168,-2.21669 1.679935,-2.638308 2.486892,-2.265765 13.683646,-8.300446 18.303891,-9.865192 1.573872,-0.533026 2.972876,-0.653999 7.408333,-0.640602 5.161516,0.01559 5.675711,0.08118 9.172222,1.170071 3.970619,1.236535 6.223359,2.491561 11.505208,6.409684 3.482954,2.583685 3.875384,3.24931 2.597496,4.405782 -0.698112,0.631781 -0.813643,0.597944 -5.203472,-1.524016 -5.291847,-2.557978 -12.350944,-4.485868 -15.476297,-4.22669 -1.879755,0.155884 -4.291549,1.372398 -6.817511,3.438765 l -1.223741,1.001084 1.709837,6.296069 c 0.940406,3.462835 1.905148,6.772317 2.143865,7.354401 0.522672,1.27448 35.357659,44.772677 35.936028,44.873067 0.222737,0.0386 3.182549,-3.13635 6.577361,-7.05556 C -8.6512548,127.7235 -0.59684113,118.45757 5.8526313,111.05177 17.200409,98.021335 17.624649,97.481293 18.994827,94.322185 c 0.778736,-1.795466 1.414332,-3.514922 1.412437,-3.821013 -0.0067,-1.080237 -1.673373,-4.124709 -2.757416,-5.036869 C 16.36241,84.380994 14.081786,83.580495 10.885712,83.09009 8.6395615,82.745441 8.5438176,82.685664 6.205148,80.167835 4.892021,78.75411 3.6602057,77.327242 3.4677831,76.997019 3.1819308,76.506455 4.0882204,75.26406 8.4215907,70.206047 c 2.9170173,-3.404811 5.4982073,-6.189689 5.7359763,-6.188619 0.237772,0.0011 1.702311,1.016676 3.254533,2.256901 2.417791,1.931815 2.914646,2.518193 3.467195,4.091894 1.158014,3.298122 5.690665,6.716204 9.701233,7.31572 1.536732,0.229717 2.154971,0.59134 4.302929,2.516885 1.379598,1.236743 4.418704,4.328212 6.753571,6.869933 4.381976,4.770194 5.943448,7.230822 7.92076,12.481862 0.736586,1.956107 0.837861,2.886647 0.92148,8.466667 0.106426,7.10221 -0.03979,7.78159 -3.212165,14.92433 -1.709959,3.85006 -2.521842,4.60578 -3.579265,3.33166 -0.399803,-0.48173 -0.352863,-1.07554 0.301134,-3.80938 0.662951,-2.77129 0.773466,-4.2315 0.765775,-10.11786 l -0.009,-6.87917 -1.036732,-1.80756 c -1.006042,-1.75406 -4.716565,-5.431857 -5.465262,-5.417065 -0.203803,0.004 -3.264863,1.631216 -6.802352,3.615975 l -6.431802,3.60865 -16.9397212,22.52944 c -9.31685,12.39119 -16.9397247,22.6709 -16.9397247,22.8438 0,0.1827 17.5452818,0.27682 41.8923589,0.22472 l 41.892359,-0.0896 -0.107626,-3.35139 C 74.187077,128.31179 67.229999,108.90418 55.102583,92.655258 51.040562,87.212761 41.63271,77.806477 36.28571,73.841523 24.068791,64.782327 11.358585,59.037183 -2.927164,56.116894 -9.0261305,54.870146 -12.37887,54.487066 -19.276787,54.24881 c -30.465284,-1.052281 -59.704722,12.421231 -79.052306,36.427244 -9.004617,11.172716 -16.264547,26.579116 -19.177847,40.697636 -1.40716,6.81939 -2.56087,17.80679 -2.01825,19.22084 0.19322,0.50353 4.53521,0.55706 45.183182,0.55706 24.733178,0 45.044756,-0.12191 45.136842,-0.2709 z m -8.990898,-19.28751 c -6.470812,-9.04572 -11.815261,-16.2963 -11.876556,-16.11242 -0.0613,0.18388 3.01904,4.83223 6.84519,10.32966 17.583382,25.26391 15.970976,23.055 16.467031,22.55895 0.204075,-0.20408 -4.147735,-6.58821 -11.435665,-16.77619 z m 23.002719,7.38758 c 8.1703854,-9.62958 8.5228033,-10.05417 8.345088,-10.05417 -0.2328969,0 -14.721585,16.50409 -14.721585,16.76938 0,0.65 1.19616,-0.6097 6.376497,-6.71521 z m -38.127766,-28.36685 c -1.000576,-1.37566 -1.887329,-2.50121 -1.970563,-2.50121 -0.08324,0 0.673908,1.18705 1.682542,2.6379 1.00863,1.45084 1.895383,2.57638 1.97056,2.50121 0.07518,-0.0752 -0.681966,-1.26224 -1.682539,-2.6379 z"
         id="path35"
         inkscape:connector-curvature="0" />
      <path
         style="fill:#605e5e;stroke-width:0.35277775"
         d="m -30.565675,253.76976 c -17.484717,-1.63878 -33.472785,-7.21867 -47.801386,-16.68282 -21.128589,-13.9556 -36.467699,-35.58745 -42.675389,-60.18258 -7.03644,-27.8787 -2.10302,-57.17106 13.6656,-81.139977 12.629159,-19.196814 30.917272,-33.322226 52.822287,-40.79899 29.498197,-10.068518 62.501664,-5.814034 88.724704,11.437522 36.202681,23.816941 53.569687,67.874435 43.226007,109.657885 -2.931679,11.84256 -7.571137,22.44499 -14.103046,32.22935 -13.87893,20.78967 -33.889691,35.32321 -58.0518346,42.16224 -10.7459774,3.04162 -24.8286614,4.34632 -35.8069424,3.31737 z M 23.769032,219.8759 c 0.56552,-0.25766 0.866013,-0.63452 0.777088,-0.97456 -0.15264,-0.58371 -39.761447,-56.14747 -40.856303,-57.31377 -0.537803,-0.5729 -0.721685,-0.60465 -1.200503,-0.20726 -0.310984,0.25809 -0.518079,0.73041 -0.460209,1.04961 0.17187,0.94795 39.879285,57.86611 40.368736,57.86611 0.247012,0 0.864052,-0.18906 1.371191,-0.42013 z m -74.082137,-39.48994 c 14.888273,-17.29388 27.147176,-31.74013 27.242013,-32.10278 0.177867,-0.68017 -0.160856,-0.84306 -0.809716,-0.38938 -0.203878,0.14255 -10.992739,12.40355 -23.975242,27.24668 -12.982508,14.84312 -25.237883,28.83162 -27.234172,31.08556 -1.996291,2.25393 -3.629617,4.33091 -3.629617,4.6155 0,0.63119 0.326288,0.98782 0.90376,0.98782 0.238365,0 12.614701,-14.14953 27.502974,-31.4434 z m 20.278431,-28.75849 c 0.614426,-0.12289 1.194477,-0.42496 1.288997,-0.67128 0.09452,-0.24632 -5.056469,-8.04218 -11.446647,-17.32414 -6.390181,-9.28196 -13.58587,-19.73379 -15.990421,-23.22629 -2.404551,-3.4925 -4.879999,-7.14375 -5.501001,-8.11389 -0.620998,-0.97014 -2.287228,-2.727097 -3.702731,-3.904348 -4.144295,-3.446741 -4.123019,-3.437251 -7.065246,-3.15118 -2.497194,0.242803 -2.607126,0.29483 -4.222266,1.998303 -0.912072,0.961957 -2.272968,2.969605 -3.024212,4.461445 -1.333934,2.64897 -1.439372,2.75587 -4.505498,4.5678 -1.726776,1.02044 -3.300853,1.80159 -3.497943,1.73589 -0.357466,-0.11915 -0.979724,-0.95968 -6.513709,-8.798512 -3.32831,-4.714519 -3.333852,-4.242389 0.08064,-6.869783 1.666753,-1.282537 2.556474,-1.691118 4.481142,-2.057848 1.320811,-0.251668 3.066348,-0.796773 3.878968,-1.21134 2.141756,-1.092641 4.423445,-3.534755 5.630294,-6.026146 0.578524,-1.194297 1.334135,-2.399507 1.679134,-2.678246 3.272903,-2.644305 13.593444,-8.212293 17.736996,-9.569201 1.818636,-0.595557 3.314883,-0.768617 7.231944,-0.836464 4.683407,-0.08112 5.157871,-0.02354 9.172221,1.113067 3.8322,1.085039 4.619092,1.458412 8.304445,3.940379 2.239112,1.50797 4.699737,3.291575 5.468055,3.963567 l 1.396944,1.221803 -0.733337,0.749641 -0.73334,0.74964 -4.205548,-2.108204 c -3.034157,-1.520994 -5.433819,-2.422232 -8.615274,-3.235629 -5.230985,-1.337396 -6.383468,-1.88241 -3.351389,-1.584888 3.519653,0.345366 8.617309,1.905556 12.347222,3.778993 3.027567,1.520667 3.40518,1.64053 2.66314,0.845339 -1.289382,-1.381746 -6.74491,-5.023513 -9.355557,-6.245181 -3.417062,-1.599037 -5.561153,-2.08224 -10.240916,-2.307943 -3.842039,-0.1853 -4.557529,-0.117617 -7.740731,0.732257 -5.438961,1.452132 -11.094846,4.349979 -16.990041,8.705015 l -1.889245,1.395667 0.759831,1.563956 c 0.755992,1.556061 0.756436,1.571617 0.08838,3.081109 -1.536195,3.471079 -6.396524,6.882119 -10.312113,7.237173 -1.938325,0.17576 -2.145029,0.121186 -2.989245,-0.789263 l -0.90693,-0.978083 -1.747254,1.282601 c -0.96099,0.705432 -1.918445,1.488874 -2.127679,1.740986 -0.288315,0.347398 0.477529,1.693732 3.16302,5.560508 1.948896,2.80616 3.755498,5.32414 4.014673,5.5955 0.559682,0.58598 1.64894,0.22029 4.241934,-1.42414 l 1.616763,-1.02532 -0.906653,-1.0775 c -0.915621,-1.08815 -1.046452,-1.53959 -0.909253,-3.137344 0.222381,-2.589766 4.087484,-6.800931 8.096761,-8.821695 1.873906,-0.944491 1.273732,-1.245598 7.776608,3.901557 2.681566,2.122515 4.98282,3.859117 5.113898,3.859117 0.131079,0 1.575026,-0.744316 3.208772,-1.654038 1.811214,-1.008538 2.970445,-1.875768 2.970445,-2.222217 0,-0.312498 -1.01805,-3.414452 -2.262336,-6.893225 -1.580973,-4.420097 -2.168627,-6.500132 -1.951203,-6.906397 0.407303,-0.761051 6.253995,-5.10904 7.514505,-5.588285 0.538064,-0.204571 1.563275,-0.364523 2.278249,-0.355447 l 1.299951,0.0165 -1.596616,0.624943 c -0.878141,0.343719 -2.822828,1.452382 -4.321527,2.463694 -2.031813,1.371053 -2.724224,2.037912 -2.722206,2.62175 0.0014,0.43065 0.839385,3.799249 1.861993,7.485777 l 1.859294,6.702777 17.778263,22.225003 c 9.778047,12.22374 17.941631,22.33358 18.1413,22.4663 0.199669,0.13272 0.485591,0.16556 0.635384,0.073 0.241346,-0.14916 8.5280535,-9.6288 29.923834,-34.23161 6.219426,-7.151654 6.589762,-7.660825 7.87377,-10.825542 1.535702,-3.785076 1.523266,-4.833051 -0.08745,-7.36988 -1.276153,-2.009905 -3.828531,-3.370283 -7.538653,-4.017984 L 8.9471942,82.345192 6.3770707,79.794919 C 4.7779397,78.208142 3.8446485,77.007465 3.9067444,76.616853 4.0153259,75.933819 13.250705,64.892998 13.975307,64.579968 c 0.244066,-0.105439 1.652362,0.79598 3.129545,2.003153 2.219095,1.813471 2.80398,2.513293 3.365972,4.027421 1.24321,3.349465 5.981471,6.827236 10.197825,7.484963 1.903842,0.296988 1.941085,0.327406 7.869113,6.426549 6.430123,6.615732 7.547532,8.093754 9.521479,12.59426 1.770955,4.037686 1.975531,5.210306 2.02378,11.600206 0.0471,6.23772 -0.09055,6.84409 -3.106434,13.68368 -1.81998,4.12746 -2.029911,4.40244 -2.784753,3.64759 -0.505489,-0.50549 -0.48459,-0.79 0.232124,-3.15988 0.674155,-2.22916 0.807692,-3.63108 0.926878,-9.73067 0.131543,-6.73215 0.09739,-7.21018 -0.617499,-8.64306 -0.914534,-1.83301 -5.541031,-6.632033 -6.393621,-6.632033 -0.662862,0 -12.421774,6.404953 -13.435241,7.318033 -1.246325,1.12287 -34.1270957,45.11603 -34.1270957,45.66069 0,0.30866 0.3571875,0.65508 0.79375,0.76982 0.4365624,0.11473 19.3070327,0.21423 41.9343817,0.22112 36.07595,0.011 41.19448,-0.0524 41.578041,-0.51454 0.836813,-1.0083 -0.358736,-12.91353 -2.091104,-20.82318 C 66.779238,102.14583 48.201597,77.990022 22.350989,64.666896 12.005837,59.335116 2.0962043,56.208255 -10.104565,54.425953 c -4.738514,-0.692208 -20.787888,-0.586097 -25.684052,0.169811 -21.538871,3.325339 -39.950091,12.430203 -54.880789,27.140084 -12.834974,12.645149 -21.805314,28.156242 -26.278924,45.440272 -1.78131,6.88217 -3.04553,15.9071 -3.04621,21.74607 -2.8e-4,2.34816 0.0576,2.54387 0.79345,2.68053 1.30721,0.24281 87.955905,0.26685 89.166416,0.0247 z m 3.814755,-3.3965 c 0.176925,-0.92812 -23.144083,-33.48172 -23.883837,-33.33926 -0.313637,0.0604 -0.570251,0.34937 -0.570251,0.64215 0,0.29278 5.159374,7.95209 11.465277,17.02067 9.189201,13.21509 11.604628,16.47004 12.167227,16.39617 0.386077,-0.0507 0.755788,-0.37457 0.821584,-0.71973 z m 18.7181341,-17.35531 c 12.0710495,-14.0827 14.4616233,-17.14881 13.0076356,-16.68337 -0.4178229,0.13375 -26.1389307,29.21243 -27.2953037,30.85837 -0.576923,0.82117 -0.405772,1.51482 0.373768,1.51482 0.255912,0 6.517167,-7.06042 13.9139001,-15.68982 z M 47.441601,118.87242 c 1.70235,-4.542 1.719968,-4.63191 1.832017,-9.34861 0.139062,-5.85403 -0.427968,-8.89159 -2.39904,-12.851585 -0.779402,-1.56586 -2.250433,-3.958272 -3.268955,-5.316467 C 40.93537,87.794989 32.94911,79.890481 32.021763,79.890481 c -0.412214,0 -1.221137,0.396875 -1.797611,0.881945 -1.246826,1.049134 -1.450668,1.061816 -4.252782,0.264583 -1.739247,-0.494835 -2.616891,-1.033111 -4.422118,-2.712165 -3.442712,-3.202096 -4.60708,-6.134902 -3.462824,-8.722156 0.195894,-0.442937 -0.218768,-0.947384 -1.694865,-2.061848 -1.074815,-0.811493 -2.10319,-1.420736 -2.285276,-1.353873 -0.426614,0.156656 -8.8677924,10.119509 -8.8564612,10.452996 0.00469,0.138549 0.8635223,1.204407 1.9084712,2.368574 l 1.8999093,2.116666 1.1783347,-1.345007 c 1.876827,-2.142296 4.695119,-2.446862 7.881115,-0.851693 1.70447,0.853396 6.073993,5.204594 6.356208,6.329548 0.140014,0.55813 -0.624762,2.596339 -2.486533,6.626874 -2.054285,4.447307 -2.61996,5.996943 -2.397262,6.567159 0.160309,0.410478 1.347498,1.723826 2.638192,2.918556 l 2.346716,2.17224 5.86183,-3.888702 c 3.224007,-2.138782 6.023997,-3.888698 6.222198,-3.888698 0.952208,0 3.561461,1.737939 5.680403,3.783535 3.55274,3.429755 3.828136,4.295125 3.873324,12.171105 0.02734,4.76488 -0.112314,7.12002 -0.535295,9.02745 -1.08579,4.89635 -0.567217,4.34516 1.764164,-1.87515 z m -98.291997,-5.33408 c 0,-0.5586 -6.519827,-9.30619 -6.936168,-9.30619 -0.259691,0 -0.472952,0.11906 -0.473915,0.26458 -0.0011,0.14552 1.377421,2.28865 3.063067,4.7625 2.035761,2.98768 3.280075,4.49792 3.705916,4.49792 0.352605,0 0.6411,-0.0985 0.6411,-0.21881 z m 61.910203,-4.1601 c 3.216593,-3.69238 3.870812,-4.67024 2.91271,-4.3536 -0.76768,0.2537 -7.3411465,7.70756 -7.1170162,8.0702 0.3646417,0.59001 0.7473491,0.25169 4.2043062,-3.7166 z m 11.152388,-2.41207 c 1.653999,-1.93108 1.651607,-1.94098 -1.099329,-4.54853 -1.403512,-1.33035 -2.74096,-2.418827 -2.972107,-2.418827 -0.595006,0 -2.316159,1.871937 -2.316159,2.519067 0,0.62276 4.660671,5.24204 5.289014,5.24204 0.230297,0 0.724658,-0.35718 1.098581,-0.79375 z m -78.863817,-6.10599 c 1.83248,-1.078473 3.331781,-2.041563 3.331781,-2.140207 0,-0.461193 -1.90054,-2.601715 -2.310027,-2.601715 -0.903725,0 -6.156639,3.612547 -6.156639,4.234052 0,0.5698 1.255871,2.46873 1.632712,2.46873 0.09372,0 1.669697,-0.88239 3.502173,-1.96086 z"
         id="path33"
         inkscape:connector-curvature="0" />
      <path
         style="fill:#e20b08;stroke-width:0.35277775"
         d="m -28.096231,253.82214 c -24.376826,-2.33603 -44.858077,-10.93925 -61.610779,-25.8798 -14.41996,-12.86015 -24.77781,-29.3325 -30.12417,-47.90722 -3.1729,-11.0235 -4.80365,-23.98027 -4.11281,-32.67728 1.85913,-23.40445 9.07051,-42.39887 22.47127,-59.188243 9.357127,-11.723245 20.811358,-20.890972 34.570936,-27.669857 9.474559,-4.667799 20.086435,-8.006472 29.633331,-9.323141 2.328334,-0.321114 5.027084,-0.770795 5.997222,-0.999291 2.352305,-0.554037 16.344917,-0.554037 18.697222,0 0.970138,0.228496 3.6688883,0.678177 5.9972215,0.999291 15.5726298,2.147713 32.7330315,9.3216 45.8110525,19.151261 17.705147,13.307485 30.635599,32.05821 36.718291,53.24598 1.994842,6.9486 3.387926,14.70444 4.129698,22.99164 0.357523,3.99426 0.130164,12.24109 -0.408481,14.81666 -0.182602,0.87313 -0.594734,3.4925 -0.915847,5.82084 -2.150346,15.59171 -9.309554,32.717 -19.151264,45.81105 -14.049906,18.69292 -33.952827,31.90618 -56.65845,37.61474 -2.91041653,0.73173 -7.2760413,1.59916 -9.7013884,1.92763 -2.4253471,0.32847 -4.9653466,0.73754 -5.6444446,0.90904 -1.741529,0.43982 -12.322481,0.68024 -15.69861,0.3567 z m 52.052239,-33.71156 c 0.572449,-0.29602 1.040814,-0.76394 1.040814,-1.03981 0,-0.42054 -7.435613,-10.90485 -38.411614,-54.16085 -1.597868,-2.23132 -3.145913,-4.11058 -3.440101,-4.17614 -0.578507,-0.1289 -1.510549,0.88071 -1.528731,1.65597 -0.0062,0.26314 2.822617,4.54939 6.286193,9.525 3.4635788,4.97561 12.13601317,17.46031 19.2720828,27.74378 7.1360662,10.28347 13.3590592,19.21316 13.8288702,19.84375 0.957513,1.28519 1.448082,1.38626 2.952486,0.6083 z m -78.855083,-33.8576 c 12.187043,-14.16403 24.446088,-28.40746 27.242321,-31.65208 4.926421,-5.71637 5.679901,-6.98441 4.307271,-7.24876 -0.567675,-0.10932 -55.449047,62.26172 -55.664072,63.26056 -0.161346,0.74949 0.633469,1.62597 1.358681,1.49827 0.328645,-0.0579 10.568753,-11.69397 22.755799,-25.85799 z m 26.425365,-35.45417 c -0.0152,-0.54326 -2.644239,-4.67519 -6.846093,-10.75972 -12.969518,-18.78062 -24.572615,-35.63209 -24.811467,-36.03431 -0.15082,-0.25398 1.125566,-1.2002 3.440881,-2.55082 2.024352,-1.18089 3.821413,-2.398622 3.993469,-2.706072 0.244027,-0.436051 3.982431,4.023832 16.997538,20.277912 9.176589,11.46029 16.871794,20.8369 17.100458,20.8369 0.22866,0 0.629539,-0.19844 0.890834,-0.44097 1.033752,-0.95952 -0.14115,0.61078 -2.520477,3.36871 -1.334551,1.54691 -2.371277,2.97809 -2.30384,3.1804 0.06744,0.20231 0.400233,0.53793 0.739546,0.74582 0.501544,0.30729 0.751529,0.19519 1.336551,-0.5993 0.395789,-0.53751 6.577781,-7.80673 13.7377623,-16.15383 7.1599809,-8.34709 13.0181484,-15.40825 13.0181484,-15.69146 0,-1.52266 -1.6664304,-0.10314 -6.85001628,5.83508 -3.04867712,3.4925 -5.62408532,6.35 -5.72313472,6.35 -0.099046,0 1.7850872,-2.26219 4.186964,-5.02709 2.40188029,-2.76489 6.8191694,-7.86819 9.8162034,-11.34067 2.9970309,-3.47247 5.8792599,-6.80622 6.4049519,-7.40833 0.856054,-0.9805 0.957298,-1.0183 0.970139,-0.36217 0.0145,0.74014 4.980125,5.87204 6.011559,6.21285 0.378714,0.12513 -3.842837,5.98322 -14.8477108,20.6036 -8.4572858,11.23581 -15.5580106,20.76927 -15.7793928,21.18545 -0.3111076,0.58487 -0.2979526,0.84349 0.057919,1.13884 0.3247072,0.26948 12.8983168,0.38539 42.6538506,0.3932 l 42.193416,0.0111 0.236661,-0.74565 c 0.288996,-0.91054 -0.06586,-6.4902 -0.760709,-11.96111 C 69.849071,99.622318 41.222433,66.899022 2.6561226,56.608645 -10.410367,53.122206 -26.363072,52.450772 -39.367004,54.839932 c -9.746392,1.790666 -17.458541,4.357049 -26.476447,8.810608 -28.973668,14.308858 -48.888389,41.88129 -53.617509,74.23478 -0.62875,4.3015 -1.10677,12.53659 -0.77751,13.39462 0.19432,0.50642 4.50355,0.55136 46.001935,0.47978 l 45.787526,-0.079 -0.02469,-0.88195 z m 13.077479,-14.11111 c 0.351186,-0.38806 0.717895,-0.70556 0.814909,-0.70556 0.09701,0 -0.110945,0.3175 -0.462132,0.70556 -0.351186,0.38806 -0.717895,0.70556 -0.814909,0.70556 -0.09701,0 0.110945,-0.3175 0.462132,-0.70556 z m 4.550586,-5.22762 c 1.4633571,-1.71102 3.012182,-3.41759 3.44183,-3.79236 0.429648,-0.37477 -0.6966408,1.02515 -2.5028594,3.11095 -1.8062186,2.0858 -3.3550436,3.79236 -3.4418306,3.79236 -0.08679,0 1.039499,-1.39992 2.50286,-3.11095 z M -86.48095,106.9028 c 0,-0.097 0.3175,-0.34631 0.705556,-0.55399 0.388055,-0.20768 0.705555,-0.29822 0.705555,-0.20121 0,0.097 -0.3175,0.34631 -0.705555,0.55399 -0.388056,0.20768 -0.705556,0.29823 -0.705556,0.20121 z m 110.419439,-2.46487 c 0,-0.30721 0.23894,-0.55856 0.53098,-0.55856 0.29204,0 3.05261,-1.68022 6.134604,-3.73382 5.369157,-3.577578 6.969364,-4.264574 7.326414,-3.145347 0.06189,0.194027 -2.918393,2.019652 -6.62287,4.056947 -7.837099,4.31004 -7.369128,4.09535 -7.369128,3.38078 z M -82.5122,102.4119 c -1.804229,-2.25197 -1.387881,-4.219023 1.566379,-7.400436 1.832822,-1.973749 5.488139,-4.53765 6.46926,-4.53765 0.333364,0 2.875738,1.825625 5.649718,4.056944 2.77398,2.23132 5.338642,4.056944 5.699252,4.056944 0.360606,0 1.603621,-0.478536 2.762257,-1.063413 1.158631,-0.584874 2.106605,-0.994022 2.106605,-0.909217 0,0.0848 -1.037657,0.879566 -2.305907,1.766136 l -2.305907,1.611943 -3.17554,-2.643 c -2.864912,-2.384471 -3.320888,-2.641501 -4.661454,-2.62764 -3.318672,0.03433 -4.55949,0.51581 -6.354197,2.465722 -0.931309,1.011848 -2.242993,2.931287 -2.914855,4.265427 -0.671858,1.33414 -1.259258,2.41751 -1.305323,2.4075 -0.04607,-0.01 -0.599698,-0.66218 -1.230288,-1.44926 z m 102.393744,-2.06031 c -0.590289,-0.616129 -1.37772,-1.058332 -1.884567,-1.058332 -0.853648,0 -0.857937,-0.014 -0.220052,-0.718866 0.614991,-0.679559 0.668747,-0.684382 0.983072,-0.08819 0.18288,0.346868 0.818998,1.146609 1.413594,1.777198 0.594593,0.63059 1.000267,1.14652 0.901492,1.14652 -0.09877,0 -0.635868,-0.47625 -1.193539,-1.05833 z m -76.023607,-5.611709 c 0,-0.370053 -1.048504,-3.545977 -2.330012,-7.057608 -1.281504,-3.511633 -2.242972,-6.611603 -2.136591,-6.888824 0.10638,-0.27722 0.519885,-0.678756 0.918897,-0.892303 0.638267,-0.341589 0.725484,-0.286685 0.725484,0.456701 0,0.464732 0.873125,3.977901 1.940278,7.807044 1.067153,3.829141 1.940278,7.026366 1.940278,7.104944 0,0.07858 -0.238125,0.142868 -0.529167,0.142868 -0.291042,0 -0.529167,-0.302772 -0.529167,-0.672822 z m 76.772442,-1.973012 c 0.580016,-1.700706 0.517563,-2.970572 -0.231765,-4.71243 -1.267643,-2.94672 -3.555506,-4.586473 -7.479463,-5.360672 -3.7800033,-0.745798 -3.4603479,-0.546555 -2.847569,-1.774894 0.87745,-1.758892 2.409062,-2.512125 4.725676,-2.324046 1.084199,0.08802 2.493039,0.429859 3.130758,0.759636 1.842774,0.952935 6.010473,5.311844 6.010473,6.286225 0,0.45961 -0.798467,2.409772 -1.77437,4.333695 -0.975903,1.923923 -1.666088,3.180542 -1.53374,2.792486 z m -110.960266,-0.83754 -0.721981,-1.013929 2.020875,-0.400791 c 3.928674,-0.779152 7.273691,-3.439361 9.159398,-7.284243 0.962282,-1.962058 1.495545,-2.42343 1.515752,-1.311413 0.0062,0.339549 0.244299,0.925516 0.529167,1.302149 0.800816,1.05877 0.619587,2.392189 -0.569013,4.18665 -2.072531,3.128948 -6.138601,5.525943 -9.384157,5.53206 -1.612641,0.0032 -1.913138,-0.116036 -2.550041,-1.010483 z M 25.397786,80.25515 c -2.94597,-1.002989 -6.26769,-4.505085 -7.132214,-7.519501 -0.284939,-0.993521 0.483506,-3.781278 1.042306,-3.781278 0.12742,0 0.513017,0.792151 0.856887,1.760335 1.199607,3.377568 6.2492,7.195155 10.124217,7.654094 1.596852,0.189123 2.884745,0.816126 1.676365,0.816126 -0.264799,0 -1.019383,0.396875 -1.676859,0.881944 -1.398079,1.03147 -2.310885,1.066611 -4.890702,0.18828 z M -77.308728,80.119855 c 0,-0.08152 0.416422,-0.421077 0.925378,-0.75456 0.50896,-0.333483 0.817619,-0.431969 0.68591,-0.218859 -0.251693,0.407245 -1.611288,1.228611 -1.611288,0.973419 z M 13.994566,65.185606 c 0.254659,-0.101908 0.558934,-0.08937 0.676158,0.02785 0.117225,0.117225 -0.09114,0.200603 -0.463021,0.185285 -0.410968,-0.01693 -0.494559,-0.10052 -0.213137,-0.213136 z m -39.97413,83.089684 c 0,-0.91373 -23.589582,-33.7621 -24.264541,-33.78825 -0.747057,-0.0289 -1.203932,0.93936 -0.75063,1.59086 0.176399,0.25353 4.606977,6.53992 9.845727,13.96975 5.23875,7.42984 9.974072,14.14614 10.522937,14.92512 0.54887,0.77897 1.486997,2.17294 2.084733,3.09769 1.014067,1.56885 1.136142,1.6486 1.824281,1.19169 0.405621,-0.26932 0.737493,-0.71341 0.737493,-0.98686 z m -24.598833,-34.53562 c 0.0965,-0.50105 -5.156317,-8.1642 -6.606865,-9.63853 -0.693712,-0.70509 -1.426245,-0.52381 -1.426245,0.35294 0,0.50182 3.471058,5.75284 5.753026,8.7032 1.041975,1.34717 2.08166,1.61273 2.280084,0.58239 z m 61.796175,-3.99893 c 3.487861,-3.94779 4.170958,-5.15582 2.915429,-5.15582 -0.749494,0 -7.8336063,7.78888 -7.8336063,8.61293 0,1.45076 1.5359626,0.37109 4.9181773,-3.45711 z"
         id="path31"
         inkscape:connector-curvature="0" />
      <path
         style="fill:#d70e0b;stroke-width:0.35277775"
         d="m -28.096231,253.82214 c -24.376826,-2.33603 -44.858077,-10.93925 -61.610779,-25.8798 -14.41996,-12.86015 -24.77781,-29.3325 -30.12417,-47.90722 -3.1729,-11.0235 -4.80365,-23.98027 -4.11281,-32.67728 1.85913,-23.40445 9.07051,-42.39887 22.47127,-59.188243 9.357127,-11.723245 20.811358,-20.890972 34.570936,-27.669857 9.474559,-4.667799 20.086435,-8.006472 29.633331,-9.323141 2.328334,-0.321114 5.027084,-0.770795 5.997222,-0.999291 2.352305,-0.554037 16.344917,-0.554037 18.697222,0 0.970138,0.228496 3.6688883,0.678177 5.9972215,0.999291 15.5726298,2.147713 32.7330315,9.3216 45.8110525,19.151261 17.705147,13.307485 30.635599,32.05821 36.718291,53.24598 1.994842,6.9486 3.387926,14.70444 4.129698,22.99164 0.357523,3.99426 0.130164,12.24109 -0.408481,14.81666 -0.182602,0.87313 -0.594734,3.4925 -0.915847,5.82084 -2.150346,15.59171 -9.309554,32.717 -19.151264,45.81105 -14.049906,18.69292 -33.952827,31.90618 -56.65845,37.61474 -2.91041653,0.73173 -7.2760413,1.59916 -9.7013884,1.92763 -2.4253471,0.32847 -4.9653466,0.73754 -5.6444446,0.90904 -1.741529,0.43982 -12.322481,0.68024 -15.69861,0.3567 z m 17.638888,-6.21837 c 2.1343056,-0.31364 4.6743055,-0.68867 5.6444443,-0.83341 0.9701388,-0.14473 2.0223655,-0.37586 2.338278,-0.51361 0.3159125,-0.13775 1.9827874,-0.56137 3.7041665,-0.94138 4.7560227,-1.04993 5.4832282,-1.24032 7.0103326,-1.8353 0.776111,-0.30238 2.5223606,-0.97936 3.8805556,-1.5044 1.358194,-0.52503 2.78258,-1.17274 3.165302,-1.43935 0.382718,-0.2666 0.984355,-0.48474 1.336967,-0.48474 1.01466,0 3.43523,-1.37223 3.43523,-1.94744 0,-0.51228 0.404396,-0.67179 1.36537,-0.53858 0.676127,0.0937 2.515186,-0.70738 2.515186,-1.09563 0,-0.17657 0.277812,-0.42344 0.617361,-0.54859 0.339548,-0.12515 1.093611,-0.57798 1.675694,-1.00631 0.582083,-0.42833 1.394583,-0.88063 1.805559,-1.00512 0.410972,-0.12448 1.030887,-0.53979 1.37759,-0.92289 0.346703,-0.3831 0.941994,-0.69655 1.322871,-0.69655 0.380876,0 1.204341,-0.43656 1.829922,-0.97014 0.625577,-0.53357 1.505031,-1.20826 1.954335,-1.4993 0.449305,-0.29104 1.376278,-1.00542 2.059937,-1.5875 0.683658,-0.58208 1.624411,-1.37583 2.090557,-1.76389 0.466147,-0.38806 1.456782,-1.30087 2.201415,-2.02847 0.744629,-0.72761 1.485384,-1.32639 1.646121,-1.33064 0.160736,-0.004 1.20506,-0.86379 2.32072,-1.91009 1.478527,-1.38662 2.028472,-2.1553 2.028472,-2.83532 0,-0.51901 0.153289,-0.83822 0.345486,-0.71943 0.552665,0.34156 1.718747,-0.4583 2.296273,-1.57512 0.292819,-0.56624 1.56446,-2.07181 2.825873,-3.34571 1.261413,-1.27389 2.293479,-2.5408 2.293479,-2.81536 0,-0.27455 0.252031,-0.75122 0.560066,-1.05925 1.261523,-1.26152 3.320489,-4.27554 3.320489,-4.8607 0,-0.34477 0.141266,-0.62685 0.313926,-0.62685 0.17266,0 0.635265,-0.68361 1.028005,-1.51914 0.392744,-0.83552 0.965849,-1.72808 1.273574,-1.98347 0.307721,-0.25539 0.559495,-0.65218 0.559495,-0.88178 0,-0.22958 0.396875,-0.95536 0.881944,-1.61284 0.48507,-0.65747 0.882625,-1.44237 0.883454,-1.74423 7.06e-4,-0.30185 0.476402,-1.2632 1.056824,-2.13632 0.580422,-0.87313 1.056587,-1.905 1.058143,-2.29306 0.0014,-0.38805 0.319733,-1.22533 0.707065,-1.86061 0.387329,-0.63527 0.704236,-1.36698 0.704236,-1.62601 0,-0.25903 0.555625,-1.67353 1.234722,-3.14335 0.679098,-1.46982 1.234722,-3.21898 1.234722,-3.88704 0,-0.66806 0.238125,-1.41228 0.529167,-1.65382 0.294831,-0.24469 0.529167,-1.01369 0.529167,-1.73653 0,-0.71355 0.150562,-1.44817 0.334585,-1.6325 0.51025,-0.51109 1.429304,-4.3583 1.429304,-5.98314 0,-0.79355 0.133741,-1.59364 0.297201,-1.77797 0.409659,-0.46195 1.081899,-6.22416 1.284072,-11.00666 l 0.167778,-3.96875 -38.180774,-0.0378 c -20.999424,-0.0208 -39.0935858,-0.0829 -40.2092455,-0.13803 -1.1156597,-0.0551 -2.0284721,-0.0303 -2.0284721,0.0552 0,0.23652 6.75754967,8.54605 8.417743,10.35101 0.8030174,0.87303 1.4600342,1.75817 1.4600342,1.96697 0,0.2088 0.4137378,0.7645 0.91942,1.23488 0.5056822,0.47039 1.394086,1.54106 1.974229,2.37927 0.5801466,0.83821 1.2528726,1.44801 1.4949487,1.35512 0.294393,-0.11297 0.3901475,0.0926 0.2891684,0.62084 -0.1071598,0.56057 0.1135556,0.96305 0.7606347,1.38703 0.5013783,0.32852 0.9115989,0.82277 0.9115989,1.09834 0,0.27556 0.2922547,0.70847 0.6494537,0.962 0.357198,0.25354 1.065618,1.12308 1.574267,1.93231 0.508645,0.80924 1.248269,1.574 1.643602,1.69947 0.395333,0.12547 0.718788,0.3946 0.718788,0.59807 0,0.41208 2.415801,3.8474 2.986969,4.24753 0.200431,0.14041 0.415749,0.0213 0.47848,-0.26458 0.143785,-0.65535 0.562049,-0.6638 1.094595,-0.0221 0.282402,0.34028 0.296069,0.57009 0.0432,0.72638 -0.735838,0.45477 -0.325572,1.45606 1.322049,3.22659 0.923783,0.99269 2.105268,2.44811 2.62552,3.23427 0.520255,0.78616 1.343427,1.87896 1.829273,2.42844 2.631492,2.97619 4.014194,4.63331 4.63055,5.54955 0.378386,0.5625 0.926101,1.37876 1.217143,1.81392 1.157665,1.73091 5.489137,6.51198 5.899608,6.51198 0.240323,0 0.543229,0.43656 0.673129,0.97014 0.129899,0.53358 0.686255,1.48899 1.236344,2.12314 1.522797,1.75548 1.621346,2.68571 0.430463,4.06326 -0.554178,0.64104 -1.6426,1.59723 -2.418711,2.12487 -3.297188,2.24159 -3.677652,2.56674 -3.690577,3.15401 -0.0086,0.3922 -0.290047,0.61736 -0.771628,0.61736 -0.709333,0 -3.593154,2.05013 -5.591961,3.97538 -1.202718,1.15845 -3.29498,2.37462 -4.08523,2.37462 -0.779526,0 -3.675881,-2.75016 -3.675881,-3.49033 0,-0.28667 -0.609381,-1.2458 -1.35418,-2.13141 -0.744798,-0.88561 -1.562131,-2.00708 -1.816301,-2.49215 -0.254165,-0.48507 -0.795721,-1.29642 -1.203458,-1.80301 -0.407737,-0.50658 -0.940301,-1.22096 -1.183475,-1.5875 -0.243176,-0.36654 -0.878176,-1.32546 -1.411111,-2.13094 -3.0682454,-4.63735 -3.6640377,-5.43065 -4.4802525,-5.96546 -0.4941429,-0.32377 -0.8984438,-0.91126 -0.8984438,-1.30552 0,-0.39427 -0.555625,-1.39492 -1.2347222,-2.22366 -0.6790972,-0.82875 -1.2347221,-1.66636 -1.2347221,-1.86135 0,-0.195 -0.4365625,-0.86901 -0.9701389,-1.49782 -0.5335763,-0.6288 -1.3670138,-1.81785 -1.8520832,-2.64232 -0.97815041,-1.66257 -2.9284964,-4.51662 -4.5617657,-6.67547 -0.5871633,-0.77612 -1.2150512,-1.72862 -1.395303,-2.11667 -0.1802553,-0.38806 -1.0567811,-1.55196 -1.9478342,-2.58644 -0.8910531,-1.03449 -1.6200966,-2.17985 -1.6200966,-2.54523 0,-0.36539 -0.3175,-0.83426 -0.7055555,-1.04194 -0.3880555,-0.20768 -0.7055555,-0.52684 -0.7055555,-0.70923 0,-0.347 -4.2725378,-6.7931 -5.1840128,-7.82127 -0.289133,-0.32616 -0.788825,-1.06412 -1.110424,-1.63991 -1.469803,-2.63155 -2.584711,-3.99328 -3.105768,-3.79333 -0.294403,0.11297 -0.678913,0.20541 -0.85447,0.20541 -0.175552,0 -0.546004,0.54284 -0.823224,1.20632 -0.27722,0.66348 -0.803254,1.36647 -1.168965,1.56219 -0.365707,0.19572 -1.112449,1.24037 -1.659424,2.32145 -0.546975,1.08107 -1.199585,1.96559 -1.450244,1.96559 -0.647845,0 -2.282356,2.04052 -2.282356,2.84929 0,0.37317 -0.155522,0.67849 -0.345609,0.67849 -0.190084,0 -0.672801,0.64135 -1.072699,1.42522 -0.399902,0.78387 -1.114453,1.60171 -1.587891,1.81742 -0.473435,0.21572 -0.950507,0.67487 -1.060157,1.02035 -0.109651,0.34548 -1.144577,1.75668 -2.299836,3.13601 -1.155263,1.37933 -2.100474,2.63825 -2.100474,2.79759 0,0.27345 -1.190128,1.94709 -2.783614,3.91452 -2.110317,2.60553 -2.43205,3.06424 -2.659945,3.79236 -0.136638,0.43656 -0.436171,0.79375 -0.665631,0.79376 -0.556825,1e-5 -2.357477,2.28442 -2.357477,2.99083 0,0.30749 -0.243995,0.65271 -0.542215,0.76715 -0.298218,0.11443 -0.775917,0.66 -1.061555,1.21236 -0.285637,0.55236 -0.925029,1.38047 -1.420868,1.84024 -0.495844,0.45977 -0.939617,1.09543 -0.986166,1.41259 -0.04655,0.31716 -0.869721,1.46833 -1.829276,2.55816 -0.959552,1.08983 -1.906122,2.35147 -2.103483,2.80365 -0.197365,0.45218 -0.792678,1.22421 -1.322917,1.71562 -0.530243,0.49142 -0.964075,1.12766 -0.964075,1.41388 0,0.28623 -0.382541,0.82132 -0.850092,1.18909 -0.46755,0.36778 -1.300988,1.37783 -1.852083,2.24457 -0.551095,0.86674 -1.597441,2.17028 -2.325215,2.89677 -0.727773,0.72648 -1.553111,1.87107 -1.834084,2.54354 -0.28097,0.67245 -0.675577,1.22265 -0.8769,1.22265 -0.201326,0 -0.598201,0.55562 -0.881944,1.23472 -0.833702,1.99533 -2.594882,1.61339 -5.490792,-1.19076 -0.679097,-0.65759 -1.739805,-1.41033 -2.357127,-1.67277 -0.617322,-0.26244 -1.224195,-0.64187 -1.348609,-0.84318 -0.124414,-0.2013 -1.841832,-1.6383 -3.816484,-3.19333 -5.204322,-4.09838 -6.589282,-5.30876 -6.585754,-5.75556 0.004,-0.5028 2.932176,-4.03622 5.445336,-6.57079 1.05814,-1.06715 2.63385,-2.89277 3.501574,-4.05694 0.867727,-1.16417 1.829258,-2.39542 2.136736,-2.73611 0.307477,-0.3407 1.128631,-1.41226 1.824781,-2.38125 0.696154,-0.969 1.497225,-1.76181 1.780156,-1.76181 0.282935,0 0.680448,-0.47625 0.883362,-1.05833 0.202918,-0.58208 0.560391,-1.05833 0.794392,-1.05833 0.790833,0 2.790674,-2.37912 2.542805,-3.02506 -0.274341,-0.71492 0.04783,-1.91383 0.514272,-1.91383 0.18095,0 0.329004,0.23812 0.329004,0.52916 0,0.83697 0.502261,0.62278 1.432962,-0.61108 1.374352,-1.82201 2.094816,-3.07074 2.094816,-3.63078 0,-0.31346 0.334797,-0.52064 0.841371,-0.52064 0.873725,0 2.178078,-1.51214 1.81337,-2.10225 -0.228272,-0.36935 0.461842,-0.87348 1.214275,-0.88703 0.284695,-0.005 0.687701,-0.32683 0.895568,-0.71488 0.207871,-0.38806 0.956709,-1.30113 1.664092,-2.02905 1.5257,-1.57001 3.801879,-4.31445 3.801879,-4.58402 0,-0.10472 1.213594,-1.43775 2.69688,-2.96228 1.483282,-1.52453 3.156458,-3.3997 3.718168,-4.16705 0.561711,-0.76735 2.08655,-2.56763 3.388536,-4.00062 5.695467,-6.26853 7.209099,-8.22439 6.733163,-8.70033 -0.199817,-0.19981 -85.704934,-0.28522 -85.904354,-0.0858 -0.25691,0.25691 0.58434,9.74192 1.13269,12.77082 0.95957,5.30042 2.15817,10.80015 2.92159,13.40555 1.27952,4.36681 2.58907,7.9375 2.91107,7.9375 0.17235,0 0.31337,-0.15875 0.31337,-0.35278 0,-0.19403 0.15875,-0.35278 0.35278,-0.35278 0.43828,0 0.46475,1.1512 0.0369,1.60514 -0.3375,0.35808 1.5752,5.53844 2.12095,5.7444 0.17137,0.0647 0.31159,0.42187 0.31159,0.79375 0,0.37189 0.3084,0.98456 0.68534,1.3615 0.37693,0.37693 0.87741,1.32642 1.11217,2.10998 0.24531,0.81878 0.70399,1.51261 1.07855,1.63149 0.35845,0.11376 0.65172,0.52507 0.65172,0.914 0,0.75256 1.6657,3.83141 2.07284,3.83141 0.13306,0 0.42977,0.43656 0.65936,0.97014 0.81534,1.89488 6.637246,9.26042 7.319659,9.26042 0.254349,0 0.626942,0.43656 0.827983,0.97013 0.573747,1.52277 11.393524,12.0692 12.391084,12.07806 0.284219,0.002 0.839844,0.32226 1.234722,0.71054 1.312002,1.29006 4.291658,3.44653 5.866588,4.24583 0.854784,0.43381 2.030402,1.17909 2.612485,1.65616 1.898086,1.55566 4.89711,3.26983 5.720743,3.26983 0.443107,0 0.805646,0.12712 0.805646,0.28248 0,0.35967 3.01251,1.83419 3.747339,1.83419 0.304405,0 0.984529,0.30694 1.511385,0.6821 0.526859,0.37515 1.424488,0.79391 1.994736,0.93058 0.570251,0.13667 1.195567,0.36903 1.389595,0.51636 0.477446,0.36253 7.297275,2.69131 9.676331,3.30419 1.053369,0.27136 2.110605,0.41841 2.349408,0.32677 0.238806,-0.0916 0.915631,0.0823 1.504061,0.38664 0.588426,0.30429 2.150568,0.713 3.471421,0.90826 3.352408,0.49556 10.20301,1.37086 12.102944,1.54639 3.095935,0.28603 13.638148,-0.13435 17.462499,-0.69633 z m -71.981169,-32.97566 c -0.384291,-0.62179 0.02081,-0.70897 0.745815,-0.16049 0.596854,0.45155 0.607014,0.51567 0.08326,0.52552 -0.328097,0.006 -0.701181,-0.15809 -0.829077,-0.36503 z m 106.39452,5.48247 c 0.572449,-0.29602 1.040814,-0.76394 1.040814,-1.03981 0,-0.42054 -7.435613,-10.90485 -38.411614,-54.16085 -1.597868,-2.23132 -3.145913,-4.11058 -3.440101,-4.17614 -0.578507,-0.1289 -1.510549,0.88071 -1.528731,1.65597 -0.0062,0.26314 2.822617,4.54939 6.286193,9.525 3.4635788,4.97561 12.13601317,17.46031 19.2720828,27.74378 7.1360662,10.28347 13.3590592,19.21316 13.8288702,19.84375 0.957513,1.28519 1.448082,1.38626 2.952486,0.6083 z m -78.855083,-33.8576 c 12.187043,-14.16403 24.446088,-28.40746 27.242321,-31.65208 4.926421,-5.71637 5.679901,-6.98441 4.307271,-7.24876 -0.567675,-0.10932 -55.449047,62.26172 -55.664072,63.26056 -0.161346,0.74949 0.633469,1.62597 1.358681,1.49827 0.328645,-0.0579 10.568753,-11.69397 22.755799,-25.85799 z m 44.008747,-36.99643 c 0.820226,-0.94525 1.6500684,-1.98613 1.8440962,-2.31308 0.1940278,-0.32694 0.6404645,-0.90292 0.9920781,-1.27996 0.9958104,-1.06782 2.3593106,-3.30796 2.3593106,-3.8762 0,-0.28242 0.2361318,-0.5135 0.5247428,-0.5135 0.2886075,0 0.9632949,-0.65772 1.4993055,-1.4616 0.536007,-0.80387 1.3900078,-2.09114 1.8977785,-2.86059 0.5077672,-0.76945 1.06339212,-1.50079 1.23472217,-1.62521 0.54121047,-0.39302 3.11125293,-3.65722 3.66289503,-4.65223 0.2910416,-0.52496 1.794531,-2.51749 3.3410876,-4.42784 3.012147,-3.72068 4.1311015,-5.56231 3.8402015,-6.32038 -0.228325,-0.595 -3.2804455,-2.99381 -3.8091747,-2.99381 -0.3801216,0 -1.9836094,1.42467 -2.9752465,2.64345 -2.84283842,3.49404 -5.101558,6.15898 -5.8438271,6.89483 -0.4966723,0.49237 -0.9030405,1.08646 -0.9030405,1.32019 0,0.23374 -0.47625,0.84931 -1.0583333,1.36795 -0.5820833,0.51864 -1.0583332,1.15079 -1.0583332,1.40477 0,0.25399 -0.47625,0.70808 -1.0583333,1.00908 -0.5820833,0.30101 -1.0583333,0.73569 -1.0583333,0.96595 0,0.23026 -0.3890045,0.74212 -0.8644501,1.13747 -0.4754492,0.39534 -1.966553,2.03675 -3.31356,3.64758 -1.731102,2.07015 -2.396427,3.13025 -2.269406,3.61598 0.142166,0.54363 -0.0018,0.68719 -0.688706,0.68719 -0.917395,0 -1.579648,0.61386 -2.372381,2.19901 -0.265233,0.53037 -0.750232,1.04936 -1.077775,1.15331 -0.327547,0.10396 -0.769366,0.57054 -0.981827,1.03683 -0.349408,0.76687 -0.235715,0.97673 1.190802,2.19808 0.867399,0.74265 2.242668,1.95503 3.056156,2.69419 1.38316,1.25678 1.508862,1.30253 1.938648,0.70556 0.252772,-0.35111 1.130677,-1.41176 1.950903,-2.35702 z m -17.583382,1.54226 c -0.0152,-0.54326 -2.644239,-4.67519 -6.846093,-10.75972 -12.969518,-18.78062 -24.572615,-35.63209 -24.811467,-36.03431 -0.15082,-0.25398 1.125566,-1.2002 3.440881,-2.55082 2.024352,-1.18089 3.821413,-2.398622 3.993469,-2.706072 0.244027,-0.436051 3.982431,4.023832 16.997538,20.277912 9.176589,11.46029 16.871794,20.8369 17.100458,20.8369 0.22866,0 0.629539,-0.19844 0.890834,-0.44097 1.033752,-0.95952 -0.14115,0.61078 -2.520477,3.36871 -1.334551,1.54691 -2.371277,2.97809 -2.30384,3.1804 0.06744,0.20231 0.400233,0.53793 0.739546,0.74582 0.501544,0.30729 0.751529,0.19519 1.336551,-0.5993 0.395789,-0.53751 6.577781,-7.80673 13.7377623,-16.15383 7.1599809,-8.34709 13.0181484,-15.40825 13.0181484,-15.69146 0,-1.52266 -1.6664304,-0.10314 -6.85001628,5.83508 -3.04867712,3.4925 -5.62408532,6.35 -5.72313472,6.35 -0.099046,0 1.7850872,-2.26219 4.186964,-5.02709 2.40188029,-2.76489 6.8191694,-7.86819 9.8162034,-11.34067 2.9970309,-3.47247 5.8792599,-6.80622 6.4049519,-7.40833 0.856054,-0.9805 0.957298,-1.0183 0.970139,-0.36217 0.0145,0.74014 4.980125,5.87204 6.011559,6.21285 0.378714,0.12513 -3.842837,5.98322 -14.8477108,20.6036 -8.4572858,11.23581 -15.5580106,20.76927 -15.7793928,21.18545 -0.3111076,0.58487 -0.2979526,0.84349 0.057919,1.13884 0.3247072,0.26948 12.8983168,0.38539 42.6538506,0.3932 l 42.193416,0.0111 0.236661,-0.74565 c 0.288996,-0.91054 -0.06586,-6.4902 -0.760709,-11.96111 C 69.849071,99.622318 41.222433,66.899022 2.6561226,56.608645 -10.410367,53.122206 -26.363072,52.450772 -39.367004,54.839932 c -9.746392,1.790666 -17.458541,4.357049 -26.476447,8.810608 -28.973668,14.308858 -48.888389,41.88129 -53.617509,74.23478 -0.62875,4.3015 -1.10677,12.53659 -0.77751,13.39462 0.19432,0.50642 4.50355,0.55136 46.001935,0.47978 l 45.787526,-0.079 -0.02469,-0.88195 z m 13.077479,-14.11111 c 0.351186,-0.38806 0.717895,-0.70556 0.814909,-0.70556 0.09701,0 -0.110945,0.3175 -0.462132,0.70556 -0.351186,0.38806 -0.717895,0.70556 -0.814909,0.70556 -0.09701,0 0.110945,-0.3175 0.462132,-0.70556 z m 4.550586,-5.22762 c 1.4633571,-1.71102 3.012182,-3.41759 3.44183,-3.79236 0.429648,-0.37477 -0.6966408,1.02515 -2.5028594,3.11095 -1.8062186,2.0858 -3.3550436,3.79236 -3.4418306,3.79236 -0.08679,0 1.039499,-1.39992 2.50286,-3.11095 z M -86.48095,106.9028 c 0,-0.097 0.3175,-0.34631 0.705556,-0.55399 0.388055,-0.20768 0.705555,-0.29822 0.705555,-0.20121 0,0.097 -0.3175,0.34631 -0.705555,0.55399 -0.388056,0.20768 -0.705556,0.29823 -0.705556,0.20121 z m 110.419439,-2.46487 c 0,-0.30721 0.23894,-0.55856 0.53098,-0.55856 0.29204,0 3.05261,-1.68022 6.134604,-3.73382 5.369157,-3.577578 6.969364,-4.264574 7.326414,-3.145347 0.06189,0.194027 -2.918393,2.019652 -6.62287,4.056947 -7.837099,4.31004 -7.369128,4.09535 -7.369128,3.38078 z M -82.5122,102.4119 c -1.804229,-2.25197 -1.387881,-4.219023 1.566379,-7.400436 1.832822,-1.973749 5.488139,-4.53765 6.46926,-4.53765 0.333364,0 2.875738,1.825625 5.649718,4.056944 2.77398,2.23132 5.338642,4.056944 5.699252,4.056944 0.360606,0 1.603621,-0.478536 2.762257,-1.063413 1.158631,-0.584874 2.106605,-0.994022 2.106605,-0.909217 0,0.0848 -1.037657,0.879566 -2.305907,1.766136 l -2.305907,1.611943 -3.17554,-2.643 c -2.864912,-2.384471 -3.320888,-2.641501 -4.661454,-2.62764 -3.318672,0.03433 -4.55949,0.51581 -6.354197,2.465722 -0.931309,1.011848 -2.242993,2.931287 -2.914855,4.265427 -0.671858,1.33414 -1.259258,2.41751 -1.305323,2.4075 -0.04607,-0.01 -0.599698,-0.66218 -1.230288,-1.44926 z m 102.393744,-2.06031 c -0.590289,-0.616129 -1.37772,-1.058332 -1.884567,-1.058332 -0.853648,0 -0.857937,-0.014 -0.220052,-0.718866 0.614991,-0.679559 0.668747,-0.684382 0.983072,-0.08819 0.18288,0.346868 0.818998,1.146609 1.413594,1.777198 0.594593,0.63059 1.000267,1.14652 0.901492,1.14652 -0.09877,0 -0.635868,-0.47625 -1.193539,-1.05833 z m -76.023607,-5.611709 c 0,-0.370053 -1.048504,-3.545977 -2.330012,-7.057608 -1.281504,-3.511633 -2.242972,-6.611603 -2.136591,-6.888824 0.10638,-0.27722 0.519885,-0.678756 0.918897,-0.892303 0.638267,-0.341589 0.725484,-0.286685 0.725484,0.456701 0,0.464732 0.873125,3.977901 1.940278,7.807044 1.067153,3.829141 1.940278,7.026366 1.940278,7.104944 0,0.07858 -0.238125,0.142868 -0.529167,0.142868 -0.291042,0 -0.529167,-0.302772 -0.529167,-0.672822 z m 76.772442,-1.973012 c 0.580016,-1.700706 0.517563,-2.970572 -0.231765,-4.71243 -1.267643,-2.94672 -3.555506,-4.586473 -7.479463,-5.360672 -3.7800033,-0.745798 -3.4603479,-0.546555 -2.847569,-1.774894 0.87745,-1.758892 2.409062,-2.512125 4.725676,-2.324046 1.084199,0.08802 2.493039,0.429859 3.130758,0.759636 1.842774,0.952935 6.010473,5.311844 6.010473,6.286225 0,0.45961 -0.798467,2.409772 -1.77437,4.333695 -0.975903,1.923923 -1.666088,3.180542 -1.53374,2.792486 z m -110.960266,-0.83754 -0.721981,-1.013929 2.020875,-0.400791 c 3.928674,-0.779152 7.273691,-3.439361 9.159398,-7.284243 0.962282,-1.962058 1.495545,-2.42343 1.515752,-1.311413 0.0062,0.339549 0.244299,0.925516 0.529167,1.302149 0.800816,1.05877 0.619587,2.392189 -0.569013,4.18665 -2.072531,3.128948 -6.138601,5.525943 -9.384157,5.53206 -1.612641,0.0032 -1.913138,-0.116036 -2.550041,-1.010483 z M 25.397786,80.25515 c -2.94597,-1.002989 -6.26769,-4.505085 -7.132214,-7.519501 -0.284939,-0.993521 0.483506,-3.781278 1.042306,-3.781278 0.12742,0 0.513017,0.792151 0.856887,1.760335 1.199607,3.377568 6.2492,7.195155 10.124217,7.654094 1.596852,0.189123 2.884745,0.816126 1.676365,0.816126 -0.264799,0 -1.019383,0.396875 -1.676859,0.881944 -1.398079,1.03147 -2.310885,1.066611 -4.890702,0.18828 z M -77.308728,80.119855 c 0,-0.08152 0.416422,-0.421077 0.925378,-0.75456 0.50896,-0.333483 0.817619,-0.431969 0.68591,-0.218859 -0.251693,0.407245 -1.611288,1.228611 -1.611288,0.973419 z M 13.994566,65.185606 c 0.254659,-0.101908 0.558934,-0.08937 0.676158,0.02785 0.117225,0.117225 -0.09114,0.200603 -0.463021,0.185285 -0.410968,-0.01693 -0.494559,-0.10052 -0.213137,-0.213136 z m -39.97413,83.089684 c 0,-0.91373 -23.589582,-33.7621 -24.264541,-33.78825 -0.747057,-0.0289 -1.203932,0.93936 -0.75063,1.59086 0.176399,0.25353 4.606977,6.53992 9.845727,13.96975 5.23875,7.42984 9.974072,14.14614 10.522937,14.92512 0.54887,0.77897 1.486997,2.17294 2.084733,3.09769 1.014067,1.56885 1.136142,1.6486 1.824281,1.19169 0.405621,-0.26932 0.737493,-0.71341 0.737493,-0.98686 z m 2.321175,-4.79662 c 0.838768,-1.11566 1.850263,-2.29732 2.247762,-2.62592 0.720344,-0.59548 0.718947,-0.60135 -0.423799,-1.78068 -0.63059,-0.65078 -1.151004,-1.33443 -1.156476,-1.51922 -0.0055,-0.18479 -1.034856,-1.44723 -2.28752,-2.80543 -1.252661,-1.35819 -2.280059,-2.57393 -2.283107,-2.70165 -0.0032,-0.12771 -0.706896,-0.95385 -1.564114,-1.83587 -0.857222,-0.88201 -1.659093,-1.92034 -1.781937,-2.30738 -0.122845,-0.38705 -0.515659,-0.7965 -0.872924,-0.90989 -0.357262,-0.11339 -0.828763,-0.63878 -1.047778,-1.16753 -0.219015,-0.52875 -0.944245,-1.55739 -1.611623,-2.28587 -0.667378,-0.72849 -1.680986,-2.00411 -2.252465,-2.83473 -0.571475,-0.83061 -1.554991,-2.05887 -2.185585,-2.72947 -0.630597,-0.6706 -1.688056,-2.06179 -2.349909,-3.09154 -1.212847,-1.88701 -2.231048,-2.6633 -2.486822,-1.89597 -0.07892,0.23677 -0.472786,0.33175 -0.915233,0.2207 -0.474109,-0.119 -1.069562,0.053 -1.528473,0.44158 -0.413484,0.35008 -1.043026,0.82923 -1.398979,1.06478 -0.62061,0.41068 -0.616384,0.45502 0.102817,1.07946 0.412507,0.35816 1.02943,1.19731 1.37094,1.86479 0.34151,0.66748 1.608265,2.48359 2.815008,4.03582 1.206743,1.55222 2.772988,3.69534 3.480544,4.7625 2.614856,3.94378 5.988928,8.64665 6.287586,8.76379 0.169309,0.0664 0.610281,0.71358 0.979939,1.43817 0.369659,0.72459 1.17885,1.88982 1.7982,2.58939 0.619351,0.69957 1.304848,1.57415 1.523323,1.94352 1.691449,2.85965 2.832587,4.31512 3.383195,4.31512 0.357872,0 1.294416,-0.88056 2.15743,-2.02847 z m -26.920008,-29.739 c 0.0965,-0.50105 -5.156317,-8.1642 -6.606865,-9.63853 -0.693712,-0.70509 -1.426245,-0.52381 -1.426245,0.35294 0,0.50182 3.471058,5.75284 5.753026,8.7032 1.041975,1.34717 2.08166,1.61273 2.280084,0.58239 z m 61.796175,-3.99893 c 3.487861,-3.94779 4.170958,-5.15582 2.915429,-5.15582 -0.749494,0 -7.8336063,7.78888 -7.8336063,8.61293 0,1.45076 1.5359626,0.37109 4.9181773,-3.45711 z"
         id="path29"
         inkscape:connector-curvature="0" />
      <path
         style="fill:#a11311;stroke-width:0.35277775"
         d="m -28.096231,253.82214 c -24.376826,-2.33603 -44.858077,-10.93925 -61.610779,-25.8798 -14.41996,-12.86015 -24.77781,-29.3325 -30.12417,-47.90722 -3.1729,-11.0235 -4.80365,-23.98027 -4.11281,-32.67728 1.85913,-23.40445 9.07051,-42.39887 22.47127,-59.188243 9.357127,-11.723245 20.811358,-20.890972 34.570936,-27.669857 9.474559,-4.667799 20.086435,-8.006472 29.633331,-9.323141 2.328334,-0.321114 5.027084,-0.770795 5.997222,-0.999291 2.352305,-0.554037 16.344917,-0.554037 18.697222,0 0.970138,0.228496 3.6688883,0.678177 5.9972215,0.999291 15.5726298,2.147713 32.7330315,9.3216 45.8110525,19.151261 17.705147,13.307485 30.635599,32.05821 36.718291,53.24598 1.994842,6.9486 3.387926,14.70444 4.129698,22.99164 0.357523,3.99426 0.130164,12.24109 -0.408481,14.81666 -0.182602,0.87313 -0.594734,3.4925 -0.915847,5.82084 -2.150346,15.59171 -9.309554,32.717 -19.151264,45.81105 -14.049906,18.69292 -33.952827,31.90618 -56.65845,37.61474 -2.91041653,0.73173 -7.2760413,1.59916 -9.7013884,1.92763 -2.4253471,0.32847 -4.9653466,0.73754 -5.6444446,0.90904 -1.741529,0.43982 -12.322481,0.68024 -15.69861,0.3567 z m 17.462499,-5.46479 c 11.43822996,-1.4691 20.816901,-4.23807 30.515276,-9.00937 19.28193,-9.48612 33.713556,-23.48217 43.733238,-42.41328 6.550402,-12.37628 10.692243,-27.78874 10.879628,-40.48486 0.04803,-3.25389 0.188873,-4.587 0.484885,-4.58936 0.229461,-0.002 0.523216,-0.33736 0.652788,-0.74561 0.288039,-0.90753 -0.06786,-6.4941 -0.761782,-11.95773 C 69.849071,99.622318 41.222433,66.899022 2.6561226,56.608645 -10.410367,53.122206 -26.363072,52.450772 -39.367004,54.839932 -55.34682,57.77584 -70.627477,64.628459 -82.953172,74.386176 -105.18306,91.984613 -118.97441,118.65252 -120.2301,146.46744 c -0.18693,4.14065 -0.13969,5.05056 0.27034,5.2079 0.35753,0.1372 0.51968,0.95603 0.57828,2.92026 0.65208,21.8572 8.5091,42.73647 22.311264,59.29006 16.326604,19.58127 40.059191,32.33608 64.387874,34.60455 2.328334,0.2171 4.788958,0.45725 5.468056,0.53367 2.339011,0.26322 12.531946,-0.14653 16.580554,-0.66653 z m -57.149997,-24.74164 c -0.873125,-0.70287 -4.337801,-3.42215 -7.699282,-6.04284 -3.361482,-2.62069 -6.196902,-4.9867 -6.300932,-5.2578 -0.251358,-0.65503 0.280271,-1.31968 9.278101,-11.59965 4.2464,-4.85148 8.196974,-9.39027 8.779058,-10.0862 0.582083,-0.69592 3.064118,-3.55277 5.515634,-6.34856 20.288196,-23.13728 27.469086,-31.50352 27.469086,-32.00343 0,-0.20646 0.515938,-0.42513 1.146528,-0.48593 0.966403,-0.0932 1.142647,-0.2491 1.121826,-0.99249 -0.0152,-0.54326 -2.644239,-4.67519 -6.846093,-10.75972 -12.969518,-18.78062 -24.572615,-35.63209 -24.811467,-36.03431 -0.15082,-0.25398 1.125566,-1.2002 3.440881,-2.55082 2.024352,-1.18089 3.821413,-2.398622 3.993469,-2.706072 0.244027,-0.436051 3.982431,4.023832 16.997538,20.277912 9.176589,11.46029 16.871794,20.8369 17.100458,20.8369 0.22866,0 0.629539,-0.19844 0.890834,-0.44097 1.031875,-0.95778 -0.139203,0.60852 -2.507054,3.35315 -1.327167,1.53835 -2.413032,2.92175 -2.413032,3.07422 0,0.15246 0.251016,0.48553 0.557813,0.74015 0.43919,0.3645 0.701759,0.37305 1.234722,0.0402 0.545969,-0.34097 0.67691,-0.32748 0.67691,0.0697 0,0.27084 1.527986,1.8751 3.395525,3.56503 3.975505,3.59741 2.964469,3.94965 8.0848297,-2.81676 1.9087499,-2.52236 6.8137083,-9.00068 10.8999084,-14.39627 4.0862036,-5.39559 7.8968839,-10.43935 8.4681829,-11.20834 l 1.038726,-1.39819 -1.9206701,-1.9568 c -1.0563683,-1.07625 -2.3315717,-2.20312 -2.8337861,-2.50417 -0.679764,-0.40749 -0.8721019,-0.76193 -0.7526267,-1.38694 0.1250809,-0.65431 0.00723,-0.83956 -0.5341161,-0.83956 -0.4599411,0 -2.5673154,2.14533 -6.23765758,6.35 -3.04867712,3.4925 -5.62408532,6.35 -5.72313472,6.35 -0.099046,0 1.7850872,-2.26219 4.186964,-5.02709 2.40188029,-2.76489 6.8191694,-7.86819 9.8162034,-11.34067 2.9970309,-3.47247 5.8792599,-6.80622 6.4049519,-7.40833 0.856054,-0.9805 0.957298,-1.0183 0.970139,-0.36217 0.0145,0.74014 4.980125,5.87204 6.011559,6.21285 0.378714,0.12513 -3.842837,5.98322 -14.8477108,20.6036 -8.4572858,11.23581 -15.5539184,20.76162 -15.7702947,21.16845 -0.4768532,0.89659 0.026494,1.55335 1.1904733,1.55335 0.4346469,0 0.8431353,0.26899 0.9375422,0.61737 0.092015,0.33954 5.393799,7.12611 11.7817435,15.08124 6.3879445,7.95514 14.2139835,17.71827 17.3911955,21.69584 3.177215,3.97757 6.361042,7.94632 7.07517,8.81944 5.53908,6.77232 10.233546,12.87553 10.233546,13.3045 0,0.5939 -1.218385,1.71797 -4.967897,4.58334 -1.471165,1.12426 -3.991187,3.07598 -5.600051,4.33716 -4.812915,3.77282 -5.449912,4.20379 -6.23571,4.21889 -0.72838,0.014 -3.99082,-4.48868 -15.7094124,-21.68139 -6.06278568,-8.8949 -16.6082376,-24.25417 -18.2870146,-26.63472 -0.615731,-0.87313 -2.54454,-3.65125 -4.286243,-6.17361 -1.741703,-2.52236 -3.29028,-4.63065 -3.441287,-4.68509 -0.151006,-0.0544 -6.16181,7.72432 -13.357344,17.28611 -7.195534,9.5618 -17.263776,22.94134 -22.373871,29.73231 -7.426371,9.86914 -9.467123,12.36608 -10.168209,12.44118 -0.576887,0.0618 -1.420512,-0.34348 -2.464622,-1.184 z m 91.739737,-3.50513 c 0.572449,-0.29602 1.040814,-0.76394 1.040814,-1.03981 0,-0.42054 -7.435613,-10.90485 -38.411614,-54.16085 -1.597868,-2.23132 -3.145913,-4.11058 -3.440101,-4.17614 -0.578507,-0.1289 -1.510549,0.88071 -1.528731,1.65597 -0.0062,0.26314 2.822617,4.54939 6.286193,9.525 3.4635788,4.97561 12.13601317,17.46031 19.2720828,27.74378 7.1360662,10.28347 13.3590592,19.21316 13.8288702,19.84375 0.957513,1.28519 1.448082,1.38626 2.952486,0.6083 z m -78.855083,-33.8576 c 12.187043,-14.16403 24.446088,-28.40746 27.242321,-31.65208 4.926421,-5.71637 5.679901,-6.98441 4.307271,-7.24876 -0.567675,-0.10932 -55.449047,62.26172 -55.664072,63.26056 -0.161346,0.74949 0.633469,1.62597 1.358681,1.49827 0.328645,-0.0579 10.568753,-11.69397 22.755799,-25.85799 z m 28.978904,-37.77479 c 0.107763,-0.28083 0.01104,-0.73334 -0.214887,-1.00559 -0.325378,-0.39206 -0.267356,-0.54054 0.278973,-0.71394 0.772015,-0.24503 5.789535,-6.09992 5.625708,-6.56458 -0.126608,-0.3591 -3.816297,-5.02598 -8.386857,-10.60805 -1.847755,-2.25668 -5.683663,-7.01918 -8.524247,-10.58333 -2.84058,-3.56415 -5.467258,-6.75339 -5.837061,-7.08718 -0.641582,-0.57913 -0.772572,-0.54529 -2.86089,0.73897 -1.203688,0.74023 -2.506073,1.63326 -2.894188,1.9845 -0.400142,0.36212 -0.705665,0.46221 -0.705665,0.23117 0,-0.62676 -1.404356,-0.48277 -1.654715,0.16966 -0.121803,0.31741 -0.07713,0.78455 0.09927,1.03808 0.176399,0.25353 4.606977,6.53992 9.845727,13.96975 5.23875,7.42984 9.974072,14.14614 10.522937,14.92512 0.54887,0.77897 1.48209,2.16504 2.073833,3.08015 0.926891,1.43341 1.170079,1.61342 1.756014,1.29984 0.374068,-0.20019 0.768294,-0.59375 0.876053,-0.87457 z m -24.658226,-34.73852 c 0.0965,-0.50105 -5.156317,-8.1642 -6.606865,-9.63853 -0.693712,-0.70509 -1.426245,-0.52381 -1.426245,0.35294 0,0.50182 3.471058,5.75284 5.753026,8.7032 1.041975,1.34717 2.08166,1.61273 2.280084,0.58239 z m 61.796175,-3.99893 c 3.487861,-3.94779 4.170958,-5.15582 2.915429,-5.15582 -0.749494,0 -7.8336063,7.78888 -7.8336063,8.61293 0,1.45076 1.5359626,0.37109 4.9181773,-3.45711 z m -26.614009,26.94696 c 0.351186,-0.38806 0.717895,-0.70556 0.814909,-0.70556 0.09701,0 -0.110945,0.3175 -0.462132,0.70556 -0.351186,0.38806 -0.717895,0.70556 -0.814909,0.70556 -0.09701,0 0.110945,-0.3175 0.462132,-0.70556 z m 4.550586,-5.22762 c 1.4633571,-1.71102 3.012182,-3.41759 3.44183,-3.79236 0.429648,-0.37477 -0.6966408,1.02515 -2.5028594,3.11095 -1.8062186,2.0858 -3.3550436,3.79236 -3.4418306,3.79236 -0.08679,0 1.039499,-1.39992 2.50286,-3.11095 z M -86.48095,106.9028 c 0,-0.097 0.3175,-0.34631 0.705556,-0.55399 0.388055,-0.20768 0.705555,-0.29822 0.705555,-0.20121 0,0.097 -0.3175,0.34631 -0.705555,0.55399 -0.388056,0.20768 -0.705556,0.29823 -0.705556,0.20121 z m 110.419439,-2.46487 c 0,-0.30721 0.23894,-0.55856 0.53098,-0.55856 0.29204,0 3.05261,-1.68022 6.134604,-3.73382 5.369157,-3.577578 6.969364,-4.264574 7.326414,-3.145347 0.06189,0.194027 -2.918393,2.019652 -6.62287,4.056947 -7.837099,4.31004 -7.369128,4.09535 -7.369128,3.38078 z M -82.5122,102.4119 c -1.804229,-2.25197 -1.387881,-4.219023 1.566379,-7.400436 1.832822,-1.973749 5.488139,-4.53765 6.46926,-4.53765 0.333364,0 2.875738,1.825625 5.649718,4.056944 2.77398,2.23132 5.338642,4.056944 5.699252,4.056944 0.360606,0 1.603621,-0.478536 2.762257,-1.063413 1.158631,-0.584874 2.106605,-0.994022 2.106605,-0.909217 0,0.0848 -1.037657,0.879566 -2.305907,1.766136 l -2.305907,1.611943 -3.17554,-2.643 c -2.864912,-2.384471 -3.320888,-2.641501 -4.661454,-2.62764 -3.318672,0.03433 -4.55949,0.51581 -6.354197,2.465722 -0.931309,1.011848 -2.242993,2.931287 -2.914855,4.265427 -0.671858,1.33414 -1.259258,2.41751 -1.305323,2.4075 -0.04607,-0.01 -0.599698,-0.66218 -1.230288,-1.44926 z m 102.393744,-2.06031 c -0.590289,-0.616129 -1.37772,-1.058332 -1.884567,-1.058332 -0.853648,0 -0.857937,-0.014 -0.220052,-0.718866 0.614991,-0.679559 0.668747,-0.684382 0.983072,-0.08819 0.18288,0.346868 0.818998,1.146609 1.413594,1.777198 0.594593,0.63059 1.000267,1.14652 0.901492,1.14652 -0.09877,0 -0.635868,-0.47625 -1.193539,-1.05833 z m -76.023607,-5.611709 c 0,-0.370053 -1.048504,-3.545977 -2.330012,-7.057608 -1.281504,-3.511633 -2.242972,-6.611603 -2.136591,-6.888824 0.10638,-0.27722 0.519885,-0.678756 0.918897,-0.892303 0.638267,-0.341589 0.725484,-0.286685 0.725484,0.456701 0,0.464732 0.873125,3.977901 1.940278,7.807044 1.067153,3.829141 1.940278,7.026366 1.940278,7.104944 0,0.07858 -0.238125,0.142868 -0.529167,0.142868 -0.291042,0 -0.529167,-0.302772 -0.529167,-0.672822 z m 76.772442,-1.973012 c 0.580016,-1.700706 0.517563,-2.970572 -0.231765,-4.71243 -1.267643,-2.94672 -3.555506,-4.586473 -7.479463,-5.360672 -3.7800033,-0.745798 -3.4603479,-0.546555 -2.847569,-1.774894 0.87745,-1.758892 2.409062,-2.512125 4.725676,-2.324046 1.084199,0.08802 2.493039,0.429859 3.130758,0.759636 1.842774,0.952935 6.010473,5.311844 6.010473,6.286225 0,0.45961 -0.798467,2.409772 -1.77437,4.333695 -0.975903,1.923923 -1.666088,3.180542 -1.53374,2.792486 z m -110.960266,-0.83754 -0.721981,-1.013929 2.020875,-0.400791 c 3.928674,-0.779152 7.273691,-3.439361 9.159398,-7.284243 0.962282,-1.962058 1.495545,-2.42343 1.515752,-1.311413 0.0062,0.339549 0.244299,0.925516 0.529167,1.302149 0.800816,1.05877 0.619587,2.392189 -0.569013,4.18665 -2.072531,3.128948 -6.138601,5.525943 -9.384157,5.53206 -1.612641,0.0032 -1.913138,-0.116036 -2.550041,-1.010483 z M 25.397786,80.25515 c -2.94597,-1.002989 -6.26769,-4.505085 -7.132214,-7.519501 -0.284939,-0.993521 0.483506,-3.781278 1.042306,-3.781278 0.12742,0 0.513017,0.792151 0.856887,1.760335 1.199607,3.377568 6.2492,7.195155 10.124217,7.654094 1.596852,0.189123 2.884745,0.816126 1.676365,0.816126 -0.264799,0 -1.019383,0.396875 -1.676859,0.881944 -1.398079,1.03147 -2.310885,1.066611 -4.890702,0.18828 z M -77.308728,80.119855 c 0,-0.08152 0.416422,-0.421077 0.925378,-0.75456 0.50896,-0.333483 0.817619,-0.431969 0.68591,-0.218859 -0.251693,0.407245 -1.611288,1.228611 -1.611288,0.973419 z M 13.994566,65.185606 c 0.254659,-0.101908 0.558934,-0.08937 0.676158,0.02785 0.117225,0.117225 -0.09114,0.200603 -0.463021,0.185285 -0.410968,-0.01693 -0.494559,-0.10052 -0.213137,-0.213136 z"
         id="path27"
         inkscape:connector-curvature="0" />
      <path
         style="fill:#601111;stroke-width:0.35277775"
         d="m -28.096231,253.82214 c -24.376826,-2.33603 -44.858077,-10.93925 -61.610779,-25.8798 -14.41996,-12.86015 -24.77781,-29.3325 -30.12417,-47.90722 -3.1729,-11.0235 -4.80365,-23.98027 -4.11281,-32.67728 1.85913,-23.40445 9.07051,-42.39887 22.47127,-59.188243 9.357127,-11.723245 20.811358,-20.890972 34.570936,-27.669857 9.474559,-4.667799 20.086435,-8.006472 29.633331,-9.323141 2.328334,-0.321114 5.027084,-0.770795 5.997222,-0.999291 2.352305,-0.554037 16.344917,-0.554037 18.697222,0 0.970138,0.228496 3.6688883,0.678177 5.9972215,0.999291 15.5726298,2.147713 32.7330315,9.3216 45.8110525,19.151261 17.705147,13.307485 30.635599,32.05821 36.718291,53.24598 1.994842,6.9486 3.387926,14.70444 4.129698,22.99164 0.357523,3.99426 0.130164,12.24109 -0.408481,14.81666 -0.182602,0.87313 -0.594734,3.4925 -0.915847,5.82084 -2.150346,15.59171 -9.309554,32.717 -19.151264,45.81105 -14.049906,18.69292 -33.952827,31.90618 -56.65845,37.61474 -2.91041653,0.73173 -7.2760413,1.59916 -9.7013884,1.92763 -2.4253471,0.32847 -4.9653466,0.73754 -5.6444446,0.90904 -1.741529,0.43982 -12.322481,0.68024 -15.69861,0.3567 z m 19.2263881,-5.11948 c 11.2329871,-1.74408 19.9839359,-4.48635 29.8451679,-9.3525 23.432426,-11.56305 41.108462,-32.06138 49.471873,-57.37096 4.242188,-12.83782 6.061763,-30.24728 4.457171,-42.64567 C 69.74739,99.486471 41.306563,66.92147 2.6561226,56.608645 -10.410367,53.122206 -26.363072,52.450772 -39.367004,54.839932 c -9.746392,1.790666 -17.458541,4.357049 -26.476447,8.810608 -29.068997,14.355937 -48.611179,41.45792 -53.681739,74.44827 -1.60281,10.4283 -0.15452,28.28002 3.26833,40.28555 3.48068,12.20838 9.90062,24.76879 17.635515,34.50334 3.301233,4.15467 11.993082,12.7578 16.020951,15.85742 15.669463,12.0583 33.129387,18.90581 52.563886,20.61472 3.715705,0.32673 17.607628,-0.10458 21.1666651,-0.65718 z M -66.37919,223.93389 c -0.481453,-0.32992 -4.019451,-3.04702 -7.862213,-6.038 -5.110667,-3.97785 -6.957924,-5.61026 -6.879166,-6.07908 0.09052,-0.53881 5.789428,-7.21459 20.594647,-24.12485 1.372418,-1.56755 7.470478,-8.5651 13.551245,-15.55009 6.080763,-6.985 11.942874,-13.71057 13.026914,-14.94572 1.084037,-1.23515 2.499946,-2.90202 3.146461,-3.70417 0.646514,-0.80214 1.498151,-1.57913 1.892522,-1.72662 0.510356,-0.19088 0.67015,-0.49593 0.554372,-1.05833 -0.08947,-0.43459 -3.228096,-5.23516 -6.97473,-10.66794 -17.975353,-26.06503 -24.582115,-35.6638 -24.802132,-36.03431 -0.15082,-0.25398 1.125566,-1.2002 3.440881,-2.55082 2.024352,-1.18089 3.821413,-2.398622 3.993469,-2.706072 0.244027,-0.436051 3.982431,4.023832 16.997538,20.277912 9.176589,11.46029 16.871794,20.8369 17.100458,20.8369 0.22866,0 0.63828,-0.19844 0.910262,-0.44097 0.805493,-0.71829 -0.253852,0.64557 -2.756345,3.54866 -1.224608,1.42064 -2.16457,2.77102 -2.088808,3.00084 0.07576,0.22982 0.488562,0.59432 0.917339,0.81 0.428777,0.21568 2.347948,1.84286 4.264826,3.61597 1.916874,1.77311 3.724387,3.22383 4.016692,3.22383 0.549053,0 2.648158,-2.62083 12.56022516,-15.68207 3.19113234,-4.20498 5.94365964,-7.73294 6.11673244,-7.8399 0.383614,-0.23709 -0.046034,0.34869 -8.0703628,11.00321 -7.5125008,9.97493 -7.4313588,9.84524 -6.5505749,10.46942 0.3584469,0.25401 6.1833051,7.36747 12.9441356,15.80768 6.7608265,8.4402 17.3534065,21.65707 23.5390645,29.3708 7.700531,9.60284 11.211189,14.24355 11.134188,14.7182 -0.113217,0.69788 -15.239594,12.70821 -16.005322,12.70821 -0.496401,0 -2.259394,-2.47966 -13.9168608,-19.5742 -2.4891046,-3.65003 -17.0157977,-24.78789 -19.3987302,-28.22718 -0.806598,-1.16417 -2.940978,-4.25979 -4.743065,-6.87917 -1.802088,-2.61937 -3.483974,-4.7625 -3.737522,-4.7625 -0.253548,0 -9.12599,11.51293 -19.716534,25.58428 -25.454227,33.8203 -25.562054,33.96187 -25.970768,34.09811 -0.194405,0.0648 -0.747381,-0.15211 -1.228838,-0.48203 z m 90.335198,-3.82331 c 0.572449,-0.29602 1.040814,-0.76394 1.040814,-1.03981 0,-0.42054 -7.435613,-10.90485 -38.411614,-54.16085 -1.597868,-2.23132 -3.145913,-4.11058 -3.440101,-4.17614 -0.578507,-0.1289 -1.510549,0.88071 -1.528731,1.65597 -0.0062,0.26314 2.822617,4.54939 6.286193,9.525 3.4635788,4.97561 12.13601317,17.46031 19.2720828,27.74378 7.1360662,10.28347 13.3590592,19.21316 13.8288702,19.84375 0.957513,1.28519 1.448082,1.38626 2.952486,0.6083 z m -78.855083,-33.8576 c 12.187043,-14.16403 24.446088,-28.40746 27.242321,-31.65208 4.926421,-5.71637 5.679901,-6.98441 4.307271,-7.24876 -0.567675,-0.10932 -55.449047,62.26172 -55.664072,63.26056 -0.161346,0.74949 0.633469,1.62597 1.358681,1.49827 0.328645,-0.0579 10.568753,-11.69397 22.755799,-25.85799 z m 28.311848,-37.06167 c 0.431228,-0.30205 0.784052,-0.74374 0.784052,-0.98154 0,-0.23781 1.244395,-1.77662 2.765322,-3.41958 1.520927,-1.64297 2.942128,-3.31986 3.158222,-3.72642 0.487387,-0.91698 0.779378,-0.48921 -6.599057,-9.66774 -15.584413,-19.3865 -16.482641,-20.46111 -17.102698,-20.46111 -0.232258,0 -1.605615,0.73472 -3.051898,1.63271 -1.446286,0.89799 -3.026487,1.74285 -3.511557,1.87746 -0.485069,0.13461 -0.935178,0.52103 -1.000241,0.85873 -0.106698,0.55377 2.04603,3.95415 7.460036,11.78365 1.03487,1.49659 4.08088,5.97544 6.768909,9.95301 5.657194,8.37114 7.892242,11.64025 8.381347,12.25903 0.463056,0.58581 0.999243,0.55603 1.947563,-0.1082 z m -23.99117,-35.45164 c 0.0965,-0.50105 -5.156317,-8.1642 -6.606865,-9.63853 -0.693712,-0.70509 -1.426245,-0.52381 -1.426245,0.35294 0,0.50182 3.471058,5.75284 5.753026,8.7032 1.041975,1.34717 2.08166,1.61273 2.280084,0.58239 z m 35.182166,22.94803 c 0.351186,-0.38806 0.717895,-0.70556 0.814909,-0.70556 0.09701,0 -0.110945,0.3175 -0.462132,0.70556 -0.351186,0.38806 -0.717895,0.70556 -0.814909,0.70556 -0.09701,0 0.110945,-0.3175 0.462132,-0.70556 z m 4.550586,-5.22762 c 1.4633571,-1.71102 3.012182,-3.41759 3.44183,-3.79236 0.429648,-0.37477 -0.6966408,1.02515 -2.5028594,3.11095 -1.8062186,2.0858 -3.3550436,3.79236 -3.4418306,3.79236 -0.08679,0 1.039499,-1.39992 2.50286,-3.11095 z m 17.4980234,-3.37224 c 0,-0.0733 0.2778125,-0.35107 0.6173611,-0.61736 0.5595267,-0.43881 0.5720045,-0.42633 0.1331948,0.13319 -0.4608583,0.58764 -0.7505559,0.77452 -0.7505559,0.48417 z m -8.7389647,-6.65778 c 2.40188029,-2.76489 6.8191694,-7.86819 9.8162034,-11.34067 2.9970309,-3.47247 5.8792599,-6.80622 6.4049519,-7.40833 0.856054,-0.9805 0.957298,-1.0183 0.970139,-0.36217 0.0145,0.74041 4.984301,5.87624 6.00801,6.20871 0.379924,0.12338 -0.877838,2.04522 -4.537657,6.93346 -2.7848,3.71951 -5.156514,6.76275 -5.270479,6.76275 -0.113961,0 -0.01669,-0.1905 0.21613,-0.42333 0.960127,-0.96013 0.429401,-1.97935 -2.3988892,-4.60688 -1.5522222,-1.44205 -2.8222221,-2.80518 -2.8222221,-3.02918 0,-0.224 -0.2940685,-0.40727 -0.6534855,-0.40727 -0.4066293,0 -2.7474015,2.39874 -6.19653078,6.35 -3.04867712,3.4925 -5.62408532,6.35 -5.72313472,6.35 -0.099046,0 1.7850872,-2.26219 4.186964,-5.02709 z M 11.217778,109.74074 c 3.487861,-3.94779 4.170958,-5.15582 2.915429,-5.15582 -0.749494,0 -7.8336063,7.78888 -7.8336063,8.61293 0,1.45076 1.5359626,0.37109 4.9181773,-3.45711 z m -2.0466299,15.11297 c 0.6333208,-0.88188 1.3884879,-1.7947 1.6781459,-2.02847 0.289656,-0.23377 -0.158351,0.48777 -0.9955738,1.60343 -1.8014561,2.40057 -2.3438449,2.73832 -0.6825721,0.42504 z M -86.48095,106.9028 c 0,-0.097 0.3175,-0.34631 0.705556,-0.55399 0.388055,-0.20768 0.705555,-0.29822 0.705555,-0.20121 0,0.097 -0.3175,0.34631 -0.705555,0.55399 -0.388056,0.20768 -0.705556,0.29823 -0.705556,0.20121 z m 110.419439,-2.46487 c 0,-0.30721 0.23894,-0.55856 0.53098,-0.55856 0.29204,0 3.05261,-1.68022 6.134604,-3.73382 5.369157,-3.577578 6.969364,-4.264574 7.326414,-3.145347 0.06189,0.194027 -2.918393,2.019652 -6.62287,4.056947 -7.837099,4.31004 -7.369128,4.09535 -7.369128,3.38078 z M -82.5122,102.4119 c -1.804229,-2.25197 -1.387881,-4.219023 1.566379,-7.400436 1.832822,-1.973749 5.488139,-4.53765 6.46926,-4.53765 0.333364,0 2.875738,1.825625 5.649718,4.056944 2.77398,2.23132 5.338642,4.056944 5.699252,4.056944 0.360606,0 1.603621,-0.478536 2.762257,-1.063413 1.158631,-0.584874 2.106605,-0.994022 2.106605,-0.909217 0,0.0848 -1.037657,0.879566 -2.305907,1.766136 l -2.305907,1.611943 -3.17554,-2.643 c -2.864912,-2.384471 -3.320888,-2.641501 -4.661454,-2.62764 -3.318672,0.03433 -4.55949,0.51581 -6.354197,2.465722 -0.931309,1.011848 -2.242993,2.931287 -2.914855,4.265427 -0.671858,1.33414 -1.259258,2.41751 -1.305323,2.4075 -0.04607,-0.01 -0.599698,-0.66218 -1.230288,-1.44926 z m 102.393744,-2.06031 c -0.590289,-0.616129 -1.37772,-1.058332 -1.884567,-1.058332 -0.853648,0 -0.857937,-0.014 -0.220052,-0.718866 0.614991,-0.679559 0.668747,-0.684382 0.983072,-0.08819 0.18288,0.346868 0.818998,1.146609 1.413594,1.777198 0.594593,0.63059 1.000267,1.14652 0.901492,1.14652 -0.09877,0 -0.635868,-0.47625 -1.193539,-1.05833 z m -76.023607,-5.611709 c 0,-0.370053 -1.048504,-3.545977 -2.330012,-7.057608 -1.281504,-3.511633 -2.242972,-6.611603 -2.136591,-6.888824 0.10638,-0.27722 0.519885,-0.678756 0.918897,-0.892303 0.638267,-0.341589 0.725484,-0.286685 0.725484,0.456701 0,0.464732 0.873125,3.977901 1.940278,7.807044 1.067153,3.829141 1.940278,7.026366 1.940278,7.104944 0,0.07858 -0.238125,0.142868 -0.529167,0.142868 -0.291042,0 -0.529167,-0.302772 -0.529167,-0.672822 z m 76.772442,-1.973012 c 0.580016,-1.700706 0.517563,-2.970572 -0.231765,-4.71243 -1.267643,-2.94672 -3.555506,-4.586473 -7.479463,-5.360672 -3.7800033,-0.745798 -3.4603479,-0.546555 -2.847569,-1.774894 0.87745,-1.758892 2.409062,-2.512125 4.725676,-2.324046 1.084199,0.08802 2.493039,0.429859 3.130758,0.759636 1.842774,0.952935 6.010473,5.311844 6.010473,6.286225 0,0.45961 -0.798467,2.409772 -1.77437,4.333695 -0.975903,1.923923 -1.666088,3.180542 -1.53374,2.792486 z m -110.960266,-0.83754 -0.721981,-1.013929 2.020875,-0.400791 c 3.928674,-0.779152 7.273691,-3.439361 9.159398,-7.284243 0.962282,-1.962058 1.495545,-2.42343 1.515752,-1.311413 0.0062,0.339549 0.244299,0.925516 0.529167,1.302149 0.800816,1.05877 0.619587,2.392189 -0.569013,4.18665 -2.072531,3.128948 -6.138601,5.525943 -9.384157,5.53206 -1.612641,0.0032 -1.913138,-0.116036 -2.550041,-1.010483 z M 25.397786,80.25515 c -2.94597,-1.002989 -6.26769,-4.505085 -7.132214,-7.519501 -0.284939,-0.993521 0.483506,-3.781278 1.042306,-3.781278 0.12742,0 0.513017,0.792151 0.856887,1.760335 1.199607,3.377568 6.2492,7.195155 10.124217,7.654094 1.596852,0.189123 2.884745,0.816126 1.676365,0.816126 -0.264799,0 -1.019383,0.396875 -1.676859,0.881944 -1.398079,1.03147 -2.310885,1.066611 -4.890702,0.18828 z M -77.308728,80.119855 c 0,-0.08152 0.416422,-0.421077 0.925378,-0.75456 0.50896,-0.333483 0.817619,-0.431969 0.68591,-0.218859 -0.251693,0.407245 -1.611288,1.228611 -1.611288,0.973419 z M 13.994566,65.185606 c 0.254659,-0.101908 0.558934,-0.08937 0.676158,0.02785 0.117225,0.117225 -0.09114,0.200603 -0.463021,0.185285 -0.410968,-0.01693 -0.494559,-0.10052 -0.213137,-0.213136 z"
         id="path25"
         inkscape:connector-curvature="0" />
      <path
         style="fill:#080505;stroke-width:0.35277775"
         d="m -27.567064,253.93351 c -1.455208,-0.0727 -2.963333,-0.27071 -3.351389,-0.44009 -0.388055,-0.16938 -2.68993,-0.56518 -5.115277,-0.87955 -26.456752,-3.42933 -51.352049,-18.14951 -67.59137,-39.96567 -10.01278,-13.45131 -16.93583,-30.31639 -19.01715,-46.32717 -0.31528,-2.42534 -0.75876,-5.04028 -0.9855,-5.81096 -0.55296,-1.87941 -0.55484,-15.41718 -0.002,-17.30585 0.22542,-0.77068 0.66637,-3.38399 0.97989,-5.80736 0.31351,-2.42336 1.04205,-6.39211 1.61897,-8.81944 7.46242,-31.397378 28.77626,-56.995525 58.254038,-69.96371 8.262111,-3.634758 17.948157,-6.378702 26.390764,-7.476194 2.425347,-0.315281 5.04028,-0.75876 5.810962,-0.985507 1.879406,-0.552951 15.417178,-0.554838 17.305852,-0.0024 0.770682,0.225421 3.3839922,0.666369 5.8073532,0.979885 6.74706512,0.872885 14.2711585,2.766332 21.0382118,5.29429 25.834872,9.651099 46.558674,29.187982 57.635744,54.334756 3.746143,8.50437 6.504869,18.18859 7.588408,26.63833 0.310759,2.42337 0.746499,4.96174 0.968312,5.64084 0.56116,1.71801 0.533043,17.15599 -0.03228,17.72131 -0.226307,0.22631 -0.412401,0.89565 -0.413548,1.48744 -0.0011,0.59178 -0.236869,2.63366 -0.523836,4.53751 -3.276963,21.74062 -13.272275,41.57415 -28.748258,57.04467 -13.550956,13.54617 -30.00117,22.71248 -48.6897019,27.13065 -4.4539815,1.05297 -11.0417075,2.14508 -12.9393031,2.14508 -0.566882,0 -1.181509,0.14554 -1.365835,0.32341 -0.37356,0.36049 -10.510541,0.71109 -14.622638,0.50574 z m 17.28611,-4.57245 C 18.088015,245.87104 43.456045,230.10129 59.459307,206.00782 75.664538,181.61027 80.0953,150.51339 71.346799,122.57659 63.304821,96.895946 45.606843,75.912315 21.826316,63.86256 11.434606,58.597011 1.0608651,55.458913 -10.95718,53.945423 c -6.633449,-0.835383 -20.511589,-0.569083 -26.806326,0.51437 -21.620979,3.721416 -40.499207,13.626547 -55.255452,28.991734 -12.823422,13.352598 -22.138442,31.155493 -25.549212,48.829723 -2.4541,12.71687 -2.4534,26.53928 0.002,38.83955 2.21513,11.0967 6.89663,22.95018 12.8732,32.59467 8.002724,12.91415 20.503005,25.16136 33.439295,32.76232 18.881541,11.0942 40.308175,15.5485 61.972748,12.88327 z m -62.794441,-31.18188 c -4.006709,-3.12434 -7.278867,-5.9295 -7.337164,-6.29001 -0.05787,-0.35789 0.127219,-0.84362 0.411304,-1.07939 0.420896,-0.34931 0.559096,-0.29454 0.746474,0.29583 0.402805,1.26913 1.432712,1.54032 2.418013,0.63672 0.476726,-0.4372 6.235495,-7.06554 12.79726,-14.72963 6.561769,-7.6641 13.523362,-15.76787 15.470215,-18.00837 8.067414,-9.28428 24.76139,-28.75532 25.47556,-29.71347 0.983961,-1.3201 0.711041,-2.13594 -0.647802,-1.9365 l -1.012807,0.14865 0.771306,-0.82102 c 0.905503,-0.96386 0.248073,-1.39158 6.192308,4.02863 2.181062,1.98878 4.195039,3.61597 4.475501,3.61597 0.280462,0 1.130585,-0.7261 1.889163,-1.61356 l 1.379227,-1.61356 3.3272874,4.1712 c 1.8300029,2.29416 11.0245131,13.75965 20.4322426,25.47888 9.407729,11.71922 18.74747,23.38178 20.754981,25.91679 l 3.650018,4.60912 -1.384021,1.24709 c -1.808286,1.62939 -13.402599,10.58019 -14.003704,10.81085 -0.586613,0.22511 -1.456852,-0.89915 -7.266361,-9.38737 -2.589533,-3.78354 -5.9092283,-8.62852 -7.3770978,-10.76662 -1.4678694,-2.13809 -4.4944768,-6.54708 -6.7257961,-9.79774 -2.23131935,-3.25066 -5.9409786,-8.64506 -8.243686,-11.98755 -2.3027074,-3.34249 -5.6944641,-8.29975 -7.5372411,-11.01614 -4.166708,-6.14205 -4.781194,-6.82173 -5.57313,-6.16448 -0.319324,0.26501 -5.298052,6.76106 -11.063845,14.43566 -28.804332,38.34022 -34.005846,45.17444 -34.380358,45.17198 -0.223245,-0.001 -3.660278,-2.54035 -7.637847,-5.64196 z m 97.154268,2.06907 c 0.483524,-0.22031 0.961284,-0.61465 1.061692,-0.8763 0.100404,-0.26165 -1.840788,-3.29609 -4.31376,-6.74319 C 18.353833,209.18166 8.9751413,196.07362 -0.01472961,183.49977 -17.357065,159.24361 -17.308234,159.30187 -18.188168,161.81432 c -0.380435,1.08625 -0.949092,0.17232 8.8596505,14.2391 3.099904,4.44558 6.5746838,9.44259 7.7217371,11.10444 1.14704987,1.66186 6.8480478,9.87403 12.6688804,18.24928 11.208656,16.12747 10.918811,15.797 13.016773,14.84111 z m -52.612499,-68.47637 c 0.485578,-0.71553 1.417634,-1.74313 2.071243,-2.28355 1.122818,-0.92837 1.106265,-0.88329 -0.300066,0.81729 -1.919576,2.32122 -2.904923,3.13693 -1.771177,1.46626 z M 9.8530182,117.23152 c -2.8871367,-2.76558 -2.9528557,-2.86448 -2.2761821,-3.42567 0.67933,-0.56339 4.6594779,-5.03376 6.5959069,-7.40831 0.75723,-0.92855 0.878956,-1.2923 0.560765,-1.6757 -0.223527,-0.26933 -0.531978,-0.48969 -0.685447,-0.48969 -0.456985,0 -7.7484603,8.18691 -7.7484603,8.70002 0,0.25971 -0.238125,0.4722 -0.5291666,0.4722 -0.2910417,0 -0.5291667,-0.09 -0.5291667,-0.20005 0,-0.24126 8.5171946,-10.04605 9.2681946,-10.66932 0.438711,-0.3641 0.567782,-0.30223 0.760875,0.36475 0.127896,0.44178 1.480912,1.91448 3.006704,3.27267 1.525792,1.3582 2.788807,2.61451 2.806696,2.79182 0.02875,0.28486 -7.961443,11.16409 -8.173628,11.129 -0.04627,-0.008 -1.421955,-1.29543 -3.0570908,-2.86172 z m -65.7726442,-7.18517 c -2.077596,-3.01107 -3.862923,-5.69743 -3.967395,-5.96968 -0.1299,-0.33852 0.906011,-1.13807 3.276808,-2.52914 1.906718,-1.11878 3.65222,-2.281856 3.87889,-2.584624 0.226671,-0.302764 0.479143,-0.471357 0.561048,-0.37465 3.842264,4.536724 9.035904,11.476264 8.671101,11.585994 -0.259631,0.0781 -1.838625,0.99557 -3.508876,2.03883 -1.670251,1.04327 -3.138689,1.89684 -3.263194,1.89684 -0.124506,0 -0.226374,-0.24662 -0.226374,-0.54806 0,-0.68392 -6.342285,-9.57574 -7.029993,-9.85598 -0.276984,-0.11287 -0.722394,0.0136 -0.989799,0.28098 -0.413075,0.41307 -0.160525,0.95884 1.679232,3.62893 1.190985,1.72851 2.66827,3.89516 3.282855,4.81478 0.614585,0.91962 1.38714,1.76119 1.716786,1.87015 0.563936,0.18639 0.523035,1.22031 -0.04827,1.22031 -0.140455,0 -1.955222,-2.4636 -4.032815,-5.47468 z m 80.038451,-5.45504 c -0.122086,-0.19754 -0.03817,-0.35916 0.186493,-0.35916 0.224655,0 3.018878,-1.7566 6.209382,-3.90355 3.190501,-2.146945 6.058842,-3.853507 6.374091,-3.792357 1.483317,0.287726 0.435589,1.146271 -4.906356,4.020437 -3.162991,1.70181 -6.176309,3.38661 -6.696261,3.744 -0.590437,0.40583 -1.028714,0.51495 -1.167349,0.29063 z m -106.447528,-2.12818 c -1.456644,-1.58836 -1.550853,-2.534967 -0.471787,-4.740499 1.105609,-2.259788 3.888606,-4.928478 6.644001,-6.371113 l 1.946254,-1.018991 2.59589,2.099115 2.595894,2.099116 -2.841977,0.21161 c -1.845882,0.137439 -3.182412,0.434665 -3.813263,0.848015 -1.074988,0.704363 -3.602366,4.111917 -4.774234,6.436907 -0.415635,0.82461 -0.792158,1.4963 -0.836721,1.49262 -0.04457,-0.004 -0.514389,-0.47922 -1.044057,-1.05678 z m 17.87417,-3.92882 -1.03614,-1.111723 1.149755,0.827673 1.149753,0.827677 1.584275,-0.769698 c 0.871351,-0.423337 1.584272,-0.71398 1.584272,-0.645873 0,0.23282 -2.682991,1.98367 -3.039766,1.98367 -0.195806,0 -0.822272,-0.500278 -1.392149,-1.111726 z m 82.467297,0.457824 c -0.369774,-0.234566 -0.361114,-0.370459 0.0451,-0.707591 0.403412,-0.3348 0.539626,-0.276359 0.689229,0.295723 0.199563,0.763139 -0.0021,0.8763 -0.734332,0.411868 z m -74.154827,-4.392439 c 0,-0.447153 -1.037875,-3.65143 -2.306386,-7.120618 -2.279781,-6.234847 -2.29852,-6.315479 -1.624433,-6.989566 0.661307,-0.661306 0.687779,-0.662007 0.874374,-0.02313 0.10583,0.362353 1.003618,3.643364 1.995085,7.291137 0.991465,3.647772 1.890981,6.862459 1.998924,7.14375 0.121249,0.315977 -0.02041,0.511437 -0.370653,0.511437 -0.356701,0 -0.566911,-0.301463 -0.566911,-0.813008 z m -33.995748,-2.401507 c -0.81328,-1.161122 -0.756987,-1.253454 0.922834,-1.513688 3.59459,-0.556863 7.937683,-3.971449 9.476718,-7.450699 0.38832,-0.877859 0.828128,-1.520649 0.977353,-1.428423 0.149225,0.09223 0.561121,0.810353 0.915328,1.595838 0.621323,1.377851 0.621608,1.477825 0.0081,2.83839 -0.815167,1.807718 -3.73593,4.560118 -5.992515,5.647079 -0.975181,0.469731 -2.643742,0.911197 -3.745054,0.990858 -1.766586,0.127783 -2.050027,0.05264 -2.562742,-0.679355 z M 21.114298,90.738397 c -0.0065,-2.638686 -2.022443,-5.660478 -4.681064,-7.016807 -0.758875,-0.387149 -2.48617,-0.914722 -3.838431,-1.172384 -1.35226,-0.257661 -2.539837,-0.549654 -2.6390524,-0.648872 -0.099219,-0.09922 0.079978,-0.683905 0.3982124,-1.299304 1.127689,-2.180709 4.44102,-2.66966 7.500238,-1.106816 1.648622,0.842222 5.669075,4.787172 5.927287,5.815978 0.177074,0.705517 -2.021649,6.221955 -2.479925,6.221955 -0.101914,0 -0.186182,-0.357187 -0.187265,-0.79375 z m 4.731519,-10.44153 c -4.691179,-1.521506 -8.987924,-7.833546 -7.060688,-10.372357 0.658883,-0.867973 0.752672,-0.803182 1.252562,0.865294 0.918132,3.064458 6.382575,7.186268 10.079548,7.602971 0.8703,0.0981 1.57897,0.276771 1.574829,0.397058 -0.01506,0.437678 -2.768625,2.158044 -3.400224,2.124396 -0.357054,-0.01902 -1.457766,-0.296835 -2.446027,-0.617362 z"
         id="path23"
         inkscape:connector-curvature="0" />
    </g>
  </g>
</svg>
